<svg width="20" height="35" viewBox="0 0 20 35" fill="none" xmlns="http://www.w3.org/2000/svg">
<mask id="path-1-inside-1_744_86" fill="white">
<path d="M20 34.6406H10L0 17.3203L10 0H20L10 17.3203L20 34.6406Z"/>
</mask>
<path d="M20 34.6406H10L0 17.3203L10 0H20L10 17.3203L20 34.6406Z" fill="#FCF9F5"/>
<path d="M20 34.6406V35.6406H21.7321L20.866 34.1406L20 34.6406ZM10 34.6406L9.13398 35.1406L9.42265 35.6406H10V34.6406ZM0 17.3203L-0.866023 16.8203L-1.1547 17.3203L-0.866023 17.8203L0 17.3203ZM10 0V-1H9.42265L9.13398 -0.500004L10 0ZM20 0L20.866 0.500004L21.7321 -1H20V0ZM10 17.3203L9.13398 16.8203L8.8453 17.3203L9.13398 17.8203L10 17.3203ZM20 34.6406V33.6406H10V34.6406V35.6406H20V34.6406ZM10 34.6406L10.866 34.1406L0.866023 16.8203L0 17.3203L-0.866023 17.8203L9.13398 35.1406L10 34.6406ZM0 17.3203L0.866023 17.8203L10.866 0.500004L10 0L9.13398 -0.500004L-0.866023 16.8203L0 17.3203ZM10 0V1H20V0V-1H10V0ZM20 0L19.134 -0.500004L9.13398 16.8203L10 17.3203L10.866 17.8203L20.866 0.500004L20 0ZM10 17.3203L9.13398 17.8203L19.134 35.1406L20 34.6406L20.866 34.1406L10.866 16.8203L10 17.3203Z" fill="#123A4D" mask="url(#path-1-inside-1_744_86)"/>
</svg>
