<svg width="20" height="35" viewBox="0 0 20 35" fill="none" xmlns="http://www.w3.org/2000/svg">
<mask id="path-1-inside-1_744_90" fill="white">
<path d="M10 17.3203L0 0H10L20 17.3203L10 34.6406H0L10 17.3203Z"/>
</mask>
<path d="M10 17.3203L0 0H10L20 17.3203L10 34.6406H0L10 17.3203Z" fill="#FCF9F5"/>
<path d="M10 17.3203L10.866 17.8203L11.1547 17.3203L10.866 16.8203L10 17.3203ZM0 0V-1H-1.73206L-0.866023 0.500004L0 0ZM10 0L10.866 -0.500004L10.5773 -1H10V0ZM20 17.3203L20.866 17.8203L21.1547 17.3203L20.866 16.8203L20 17.3203ZM10 34.6406V35.6406H10.5773L10.866 35.1406L10 34.6406ZM0 34.6406L-0.866023 34.1406L-1.73206 35.6406H0V34.6406ZM10 17.3203L10.866 16.8203L0.866023 -0.500004L0 0L-0.866023 0.500004L9.13398 17.8203L10 17.3203ZM0 0V1H10V0V-1H0V0ZM10 0L9.13398 0.500004L19.134 17.8203L20 17.3203L20.866 16.8203L10.866 -0.500004L10 0ZM20 17.3203L19.134 16.8203L9.13398 34.1406L10 34.6406L10.866 35.1406L20.866 17.8203L20 17.3203ZM10 34.6406V33.6406H0V34.6406V35.6406H10V34.6406ZM0 34.6406L0.866023 35.1406L10.866 17.8203L10 17.3203L9.13398 16.8203L-0.866023 34.1406L0 34.6406Z" fill="#123A4D" mask="url(#path-1-inside-1_744_90)"/>
</svg>
