<svg width="115" height="134" viewBox="0 0 115 134" fill="none" xmlns="http://www.w3.org/2000/svg">
<path d="M66.8742 134C49.0027 134 32.2 127.03 19.5627 114.375C6.94894 101.744 0 84.9178 0 67.002C0 49.0862 6.94894 32.2563 19.5627 19.6251C32.2 6.97031 49.0027 0 66.8742 0C83.767 0 99.7046 6.22545 112.072 17.5983L100.683 29.0024C91.3658 20.6679 79.4685 16.1085 66.8742 16.1085C53.3013 16.1085 40.5387 21.401 30.9394 31.0135C11.1261 50.8542 11.1261 83.1419 30.9394 102.983C40.5387 112.595 53.3013 117.888 66.8742 117.888C79.4685 117.888 91.3658 113.332 100.683 104.994L112.072 116.398C99.7046 127.767 83.767 133.996 66.8742 133.996V134Z" fill="#CCE876"/>
<path d="M66.8664 115.194C55.11 115.194 43.8625 110.956 35.101 103.241L47.3193 91.0058C52.808 95.4946 59.7178 97.9566 66.8625 97.9566C75.1308 97.9566 82.8979 94.738 88.7311 88.9006C94.5604 83.0633 97.7706 75.2854 97.7706 67.0018C97.7706 58.7182 94.5604 50.9403 88.7311 45.103C82.8979 39.2617 75.1308 36.0431 66.8625 36.0431C59.7178 36.0431 52.8041 38.5051 47.3193 42.9938L35.101 30.7546C43.8625 23.0395 55.11 18.8016 66.8664 18.8016C79.7425 18.8016 91.8356 23.8079 100.914 32.8991C109.997 41.9942 115 54.104 115 66.994C115 79.8839 109.997 91.9938 100.914 101.089C91.8356 110.18 79.7425 115.186 66.8664 115.186V115.194Z" fill="#CCE876"/>
<path d="M94.6543 66.9982C94.6543 74.4389 91.7652 81.4289 86.5231 86.6821H86.5192C81.2772 91.9353 74.2969 94.8285 66.8664 94.8285C59.4359 94.8285 52.4557 91.9353 47.2136 86.6821C41.9677 81.4289 39.0785 74.4389 39.0785 66.9982C39.0785 59.5575 41.9677 52.5715 47.2136 47.3183C52.4557 42.0651 59.4359 39.1719 66.8664 39.1719C74.2969 39.1719 81.2771 42.0651 86.5231 47.3183C91.7652 52.5715 94.6543 59.5614 94.6543 66.9982Z" fill="#CCE876"/>
</svg>
