<svg width="688" height="68" viewBox="0 0 688 68" fill="none" xmlns="http://www.w3.org/2000/svg">
<path d="M29.215 67.19C24.795 67.19 20.8283 66.595 17.315 65.405C13.8017 64.215 10.7983 62.4017 8.305 59.965C5.86833 57.5283 3.99833 54.5533 2.695 51.04C1.44833 47.47 0.825 43.305 0.825 38.545C0.825 33.6717 1.47667 29.3933 2.78 25.71C4.08333 22.0267 5.95333 18.91 8.39 16.36C10.8833 13.81 13.8017 11.9117 17.145 10.665C20.4883 9.36166 24.2 8.71 28.28 8.71C31.51 8.71 34.4567 9.10666 37.12 9.9C39.84 10.6933 42.1917 11.8833 44.175 13.47C46.1583 15 47.6883 16.87 48.765 19.08C49.8983 21.2333 50.4933 23.6983 50.55 26.475L37.885 29.96C37.885 27.6367 37.375 25.7383 36.355 24.265C35.3917 22.7917 34.145 21.6867 32.615 20.95C31.1417 20.1567 29.5267 19.76 27.77 19.76C26.3533 19.76 24.88 20.0717 23.35 20.695C21.8767 21.2617 20.5167 22.2533 19.27 23.67C18.0233 25.03 17.0317 26.8433 16.295 29.11C15.5583 31.3767 15.19 34.21 15.19 37.61C15.19 42.03 15.8133 45.6 17.06 48.32C18.3067 51.04 20.035 53.0517 22.245 54.355C24.455 55.6017 26.8917 56.225 29.555 56.225C32.5017 56.225 34.7683 55.6017 36.355 54.355C37.9983 53.0517 39.16 51.4367 39.84 49.51C40.52 47.5833 40.8883 45.6283 40.945 43.645L52.845 45.515C52.7883 48.575 52.335 51.4367 51.485 54.1C50.635 56.7633 49.275 59.0867 47.405 61.07C45.5917 62.9967 43.1833 64.4983 40.18 65.575C37.1767 66.6517 33.5217 67.19 29.215 67.19ZM60.4585 66V21.12H74.1435V66H60.4585ZM67.3435 14.83C64.7368 14.83 62.7251 14.2917 61.3085 13.215C59.9485 12.0817 59.2685 10.495 59.2685 8.455C59.2685 6.30166 59.9485 4.68666 61.3085 3.61C62.7251 2.47667 64.7368 1.91 67.3435 1.91C70.0068 1.91 72.0185 2.47667 73.3785 3.61C74.7951 4.68666 75.5035 6.27333 75.5035 8.37C75.5035 10.4667 74.7951 12.0817 73.3785 13.215C72.0185 14.2917 70.0068 14.83 67.3435 14.83ZM84.7798 66V38.97V21.12H95.8298L95.9998 34.295H97.6998C98.4364 31.1217 99.4848 28.4583 100.845 26.305C102.205 24.1517 103.933 22.565 106.03 21.545C108.126 20.4683 110.591 19.93 113.425 19.93C118.695 19.93 122.69 21.7717 125.41 25.455C128.186 29.1383 129.575 35.0033 129.575 43.05V66H115.805V44.58C115.805 39.9333 115.125 36.5617 113.765 34.465C112.461 32.3117 110.506 31.235 107.9 31.235C105.746 31.235 103.961 31.8867 102.545 33.19C101.185 34.4933 100.165 36.2217 99.4848 38.375C98.8048 40.5283 98.4648 42.9367 98.4648 45.6V66H84.7798ZM160.734 67.19C156.994 67.19 153.651 66.7083 150.704 65.745C147.757 64.725 145.236 63.2517 143.139 61.325C141.099 59.3983 139.541 57.0183 138.464 54.185C137.387 51.3517 136.849 48.0933 136.849 44.41C136.849 40.84 137.359 37.5533 138.379 34.55C139.456 31.5467 140.957 28.9683 142.884 26.815C144.867 24.605 147.276 22.905 150.109 21.715C152.999 20.525 156.229 19.93 159.799 19.93C163.426 19.93 166.599 20.525 169.319 21.715C172.096 22.8483 174.362 24.5483 176.119 26.815C177.932 29.0817 179.264 31.8583 180.114 35.145C180.964 38.375 181.247 42.0867 180.964 46.28L145.859 46.535V39.395L173.144 39.14L168.299 42.455C168.696 39.6217 168.526 37.3267 167.789 35.57C167.052 33.7567 165.976 32.4533 164.559 31.66C163.142 30.81 161.612 30.385 159.969 30.385C157.986 30.385 156.229 30.9233 154.699 32C153.226 33.0767 152.064 34.635 151.214 36.675C150.364 38.715 149.939 41.2083 149.939 44.155C149.939 48.8017 150.931 52.1733 152.914 54.27C154.954 56.3667 157.532 57.415 160.649 57.415C162.179 57.415 163.454 57.2167 164.474 56.82C165.494 56.3667 166.316 55.8283 166.939 55.205C167.619 54.525 168.129 53.7883 168.469 52.995C168.866 52.2017 169.177 51.4367 169.404 50.7L181.304 53.25C180.851 55.3467 180.114 57.245 179.094 58.945C178.131 60.645 176.799 62.1183 175.099 63.365C173.456 64.6117 171.444 65.5467 169.064 66.17C166.741 66.85 163.964 67.19 160.734 67.19ZM216.232 67.19C211.812 67.19 207.845 66.595 204.332 65.405C200.818 64.215 197.815 62.4017 195.322 59.965C192.885 57.5283 191.015 54.5533 189.712 51.04C188.465 47.47 187.842 43.305 187.842 38.545C187.842 33.6717 188.493 29.3933 189.797 25.71C191.1 22.0267 192.97 18.91 195.407 16.36C197.9 13.81 200.818 11.9117 204.162 10.665C207.505 9.36166 211.217 8.71 215.297 8.71C218.527 8.71 221.473 9.10666 224.137 9.9C226.857 10.6933 229.208 11.8833 231.192 13.47C233.175 15 234.705 16.87 235.782 19.08C236.915 21.2333 237.51 23.6983 237.567 26.475L224.902 29.96C224.902 27.6367 224.392 25.7383 223.372 24.265C222.408 22.7917 221.162 21.6867 219.632 20.95C218.158 20.1567 216.543 19.76 214.787 19.76C213.37 19.76 211.897 20.0717 210.367 20.695C208.893 21.2617 207.533 22.2533 206.287 23.67C205.04 25.03 204.048 26.8433 203.312 29.11C202.575 31.3767 202.207 34.21 202.207 37.61C202.207 42.03 202.83 45.6 204.077 48.32C205.323 51.04 207.052 53.0517 209.262 54.355C211.472 55.6017 213.908 56.225 216.572 56.225C219.518 56.225 221.785 55.6017 223.372 54.355C225.015 53.0517 226.177 51.4367 226.857 49.51C227.537 47.5833 227.905 45.6283 227.962 43.645L239.862 45.515C239.805 48.575 239.352 51.4367 238.502 54.1C237.652 56.7633 236.292 59.0867 234.422 61.07C232.608 62.9967 230.2 64.4983 227.197 65.575C224.193 66.6517 220.538 67.19 216.232 67.19ZM247.475 66V4.8H260.905V66H247.475ZM286.932 67.19C281.606 67.19 277.582 65.405 274.862 61.835C272.199 58.2083 270.867 52.7117 270.867 45.345V21.12H284.637V43.56C284.637 47.7533 285.261 50.8983 286.507 52.995C287.754 55.035 289.652 56.055 292.202 56.055C293.732 56.055 295.036 55.6867 296.112 54.95C297.246 54.1567 298.181 53.08 298.917 51.72C299.711 50.3033 300.277 48.6883 300.617 46.875C301.014 45.0617 301.212 43.0783 301.212 40.925V21.12H314.897V47.81V66H304.017L303.762 52.145H302.062C301.212 55.6583 300.136 58.5483 298.832 60.815C297.586 63.025 295.999 64.64 294.072 65.66C292.146 66.68 289.766 67.19 286.932 67.19ZM353.809 67.19C350.976 67.19 348.483 66.6517 346.329 65.575C344.233 64.4983 342.504 62.8833 341.144 60.73C339.841 58.5767 338.963 55.9133 338.509 52.74H336.894L336.639 66H325.419V43.985V4.8H339.104V19.675C339.104 21.035 338.991 22.48 338.764 24.01C338.594 25.4833 338.339 27.0417 337.999 28.685C337.716 30.3283 337.404 32.085 337.064 33.955H339.019C339.813 30.895 340.861 28.345 342.164 26.305C343.468 24.265 345.083 22.735 347.009 21.715C348.993 20.6383 351.316 20.1 353.979 20.1C357.719 20.1 360.949 21.0633 363.669 22.99C366.446 24.9167 368.599 27.665 370.129 31.235C371.659 34.7483 372.424 38.97 372.424 43.9C372.424 48.66 371.659 52.7967 370.129 56.31C368.656 59.7667 366.531 62.4583 363.754 64.385C360.978 66.255 357.663 67.19 353.809 67.19ZM348.709 56.14C350.579 56.14 352.223 55.63 353.639 54.61C355.056 53.5333 356.133 52.06 356.869 50.19C357.663 48.2633 358.059 46.025 358.059 43.475C358.059 40.8683 357.691 38.6583 356.954 36.845C356.218 34.975 355.169 33.53 353.809 32.51C352.506 31.49 350.919 30.98 349.049 30.98C347.803 30.98 346.641 31.2067 345.564 31.66C344.544 32.1133 343.638 32.7367 342.844 33.53C342.051 34.3233 341.371 35.23 340.804 36.25C340.238 37.2133 339.813 38.2617 339.529 39.395C339.246 40.4717 339.104 41.5483 339.104 42.625V44.41C339.104 45.6 339.274 46.875 339.614 48.235C339.954 49.595 340.493 50.87 341.229 52.06C342.023 53.25 343.014 54.2417 344.204 55.035C345.451 55.7717 346.953 56.14 348.709 56.14ZM400.057 66V9.9H417.822L441.877 47.555H442.897L442.047 9.9H455.392V66H439.327L413.572 26.22H412.637L413.402 66H400.057ZM482.001 67.19C476.674 67.19 472.651 65.405 469.931 61.835C467.267 58.2083 465.936 52.7117 465.936 45.345V21.12H479.706V43.56C479.706 47.7533 480.329 50.8983 481.576 52.995C482.822 55.035 484.721 56.055 487.271 56.055C488.801 56.055 490.104 55.6867 491.181 54.95C492.314 54.1567 493.249 53.08 493.986 51.72C494.779 50.3033 495.346 48.6883 495.686 46.875C496.082 45.0617 496.281 43.0783 496.281 40.925V21.12H509.966V47.81V66H499.086L498.831 52.145H497.131C496.281 55.6583 495.204 58.5483 493.901 60.815C492.654 63.025 491.067 64.64 489.141 65.66C487.214 66.68 484.834 67.19 482.001 67.19ZM492.286 15.255H482.001L488.461 0.464998H501.806L492.286 15.255ZM541.653 67.19C537.799 67.19 534.399 66.6517 531.453 65.575C528.506 64.4983 526.041 62.9683 524.058 60.985C522.074 58.945 520.544 56.5083 519.468 53.675C518.448 50.8417 517.938 47.6683 517.938 44.155C517.938 40.5283 518.448 37.2417 519.468 34.295C520.544 31.3483 522.074 28.7983 524.058 26.645C526.041 24.4917 528.478 22.8483 531.368 21.715C534.258 20.525 537.573 19.93 541.313 19.93C545.053 19.93 548.283 20.525 551.003 21.715C553.723 22.905 555.933 24.5767 557.633 26.73C559.389 28.8833 560.579 31.3767 561.203 34.21L548.538 38.46C548.368 36.59 547.914 35.06 547.178 33.87C546.441 32.68 545.478 31.83 544.288 31.32C543.154 30.7533 541.908 30.47 540.548 30.47C539.131 30.47 537.884 30.7533 536.808 31.32C535.731 31.8867 534.824 32.7367 534.088 33.87C533.351 35.0033 532.784 36.3917 532.388 38.035C531.991 39.6217 531.793 41.4633 531.793 43.56C531.793 46.5633 532.161 49.085 532.898 51.125C533.691 53.1083 534.824 54.61 536.298 55.63C537.828 56.65 539.669 57.16 541.823 57.16C544.033 57.16 545.761 56.7067 547.008 55.8C548.254 54.8933 549.161 53.7883 549.728 52.485C550.294 51.125 550.634 49.7933 550.748 48.49L562.648 51.125C562.421 53.2217 561.854 55.2617 560.948 57.245C560.098 59.1717 558.823 60.9 557.123 62.43C555.423 63.9033 553.298 65.065 550.748 65.915C548.254 66.765 545.223 67.19 541.653 67.19ZM569.047 66V4.8H582.477V66H569.047ZM614.455 67.19C610.715 67.19 607.371 66.7083 604.425 65.745C601.478 64.725 598.956 63.2517 596.86 61.325C594.82 59.3983 593.261 57.0183 592.185 54.185C591.108 51.3517 590.57 48.0933 590.57 44.41C590.57 40.84 591.08 37.5533 592.1 34.55C593.176 31.5467 594.678 28.9683 596.605 26.815C598.588 24.605 600.996 22.905 603.83 21.715C606.72 20.525 609.95 19.93 613.52 19.93C617.146 19.93 620.32 20.525 623.04 21.715C625.816 22.8483 628.083 24.5483 629.84 26.815C631.653 29.0817 632.985 31.8583 633.835 35.145C634.685 38.375 634.968 42.0867 634.685 46.28L599.58 46.535V39.395L626.865 39.14L622.02 42.455C622.416 39.6217 622.246 37.3267 621.51 35.57C620.773 33.7567 619.696 32.4533 618.28 31.66C616.863 30.81 615.333 30.385 613.69 30.385C611.706 30.385 609.95 30.9233 608.42 32C606.946 33.0767 605.785 34.635 604.935 36.675C604.085 38.715 603.66 41.2083 603.66 44.155C603.66 48.8017 604.651 52.1733 606.635 54.27C608.675 56.3667 611.253 57.415 614.37 57.415C615.9 57.415 617.175 57.2167 618.195 56.82C619.215 56.3667 620.036 55.8283 620.66 55.205C621.34 54.525 621.85 53.7883 622.19 52.995C622.586 52.2017 622.898 51.4367 623.125 50.7L635.025 53.25C634.571 55.3467 633.835 57.245 632.815 58.945C631.851 60.645 630.52 62.1183 628.82 63.365C627.176 64.6117 625.165 65.5467 622.785 66.17C620.461 66.85 617.685 67.19 614.455 67.19ZM664.16 67.19C659.627 67.19 655.604 66.3117 652.09 64.555C648.634 62.7983 645.914 60.1633 643.93 56.65C641.947 53.1367 640.955 48.745 640.955 43.475C640.955 38.205 641.947 33.8417 643.93 30.385C645.914 26.8717 648.662 24.265 652.175 22.565C655.689 20.8083 659.712 19.93 664.245 19.93C668.779 19.93 672.802 20.8083 676.315 22.565C679.829 24.3217 682.577 26.9567 684.56 30.47C686.544 33.9267 687.535 38.29 687.535 43.56C687.535 48.9433 686.515 53.3917 684.475 56.905C682.435 60.4183 679.63 63.025 676.06 64.725C672.547 66.3683 668.58 67.19 664.16 67.19ZM664.585 57.245C666.625 57.245 668.325 56.7917 669.685 55.885C671.045 54.9217 672.065 53.4767 672.745 51.55C673.425 49.6233 673.765 47.2433 673.765 44.41C673.765 41.4067 673.397 38.885 672.66 36.845C671.924 34.7483 670.819 33.1617 669.345 32.085C667.929 30.9517 666.087 30.385 663.82 30.385C661.894 30.385 660.222 30.8667 658.805 31.83C657.445 32.7367 656.425 34.1533 655.745 36.08C655.065 38.0067 654.725 40.415 654.725 43.305C654.725 47.9517 655.575 51.4367 657.275 53.76C659.032 56.0833 661.469 57.245 664.585 57.245Z" fill="#CCE876"/>
</svg>
