<svg width="303" height="42" viewBox="0 0 303 42" fill="none" xmlns="http://www.w3.org/2000/svg">
<path d="M20.6625 41.125C15.1406 41.125 9.94899 38.9923 6.04439 35.1203C2.14705 31.2555 0 26.1073 0 20.6256C0 15.1439 2.14705 9.99446 6.04439 6.12968C9.94899 2.25771 15.1406 0.125 20.6625 0.125C25.8819 0.125 30.8062 2.0298 34.6273 5.50954L31.1086 8.99888C28.2297 6.44875 24.5538 5.05373 20.6625 5.05373C16.4688 5.05373 12.5255 6.67305 9.5595 9.61422C3.4377 15.6849 3.4377 25.5639 9.5595 31.6346C12.5255 34.5757 16.4688 36.1951 20.6625 36.1951C24.5538 36.1951 28.2297 34.8013 31.1086 32.2499L34.6273 35.7393C30.8062 39.2178 25.8819 41.1238 20.6625 41.1238V41.125Z" fill="#FCF9F5"/>
<path d="M20.66 35.371C17.0276 35.371 13.5524 34.0744 10.8453 31.7138L14.6205 27.9701C16.3163 29.3435 18.4513 30.0968 20.6588 30.0968C23.2135 30.0968 25.6134 29.112 27.4157 27.326C29.2168 25.5399 30.2086 23.1601 30.2086 20.6256C30.2086 18.0911 29.2168 15.7113 27.4157 13.9252C25.6134 12.138 23.2135 11.1532 20.6588 11.1532C18.4513 11.1532 16.3151 11.9065 14.6205 13.2799L10.8453 9.53505C13.5524 7.17444 17.0276 5.87779 20.66 5.87779C24.6384 5.87779 28.3749 7.40955 31.18 10.1912C33.9862 12.974 35.5321 16.6793 35.5321 20.6232C35.5321 24.5671 33.9862 28.2724 31.18 31.0552C28.3749 33.8369 24.6384 35.3686 20.66 35.3686V35.371Z" fill="#FCF9F5"/>
<path d="M29.2458 20.6244C29.2458 22.901 28.3531 25.0397 26.7335 26.6471H26.7323C25.1126 28.2544 22.9559 29.1396 20.6601 29.1396C18.3642 29.1396 16.2075 28.2544 14.5878 26.6471C12.967 25.0397 12.0743 22.901 12.0743 20.6244C12.0743 18.3478 12.967 16.2103 14.5878 14.6029C16.2075 12.9956 18.3642 12.1104 20.6601 12.1104C22.9559 12.1104 25.1126 12.9956 26.7335 14.6029C28.3531 16.2103 29.2458 18.349 29.2458 20.6244Z" fill="#FCF9F5"/>
<path d="M59.8081 32.073C58.1441 32.073 56.6721 31.8383 55.3921 31.369C54.1121 30.8783 53.0241 30.1637 52.1281 29.225C51.2534 28.2863 50.5921 27.1557 50.1441 25.833C49.6961 24.489 49.4721 22.9637 49.4721 21.257C49.4721 19.5077 49.6961 17.9503 50.1441 16.585C50.6134 15.1983 51.2854 14.025 52.1601 13.065C53.0561 12.0837 54.1228 11.337 55.3601 10.825C56.5974 10.313 57.9948 10.057 59.5521 10.057C60.7894 10.057 61.9094 10.2277 62.9121 10.569C63.9361 10.889 64.8001 11.3583 65.5041 11.977C66.2294 12.5957 66.7841 13.3317 67.1681 14.185C67.5521 15.0383 67.7441 15.9877 67.7441 17.033L63.4561 18.057C63.4774 17.1397 63.2961 16.3717 62.9121 15.753C62.5494 15.1343 62.0588 14.665 61.4401 14.345C60.8214 14.0037 60.1388 13.833 59.3921 13.833C58.7521 13.833 58.1228 13.9717 57.5041 14.249C56.8854 14.505 56.3308 14.921 55.8401 15.497C55.3708 16.0517 54.9868 16.7877 54.6881 17.705C54.4108 18.601 54.2721 19.6997 54.2721 21.001C54.2721 22.665 54.5068 24.041 54.9761 25.129C55.4668 26.1957 56.1388 26.9957 56.9921 27.529C57.8454 28.041 58.8161 28.297 59.9041 28.297C61.0348 28.297 61.9201 28.0623 62.5601 27.593C63.2214 27.1023 63.6908 26.473 63.9681 25.705C64.2668 24.9157 64.4161 24.073 64.4161 23.177L68.5121 23.785C68.5334 24.937 68.3841 26.0143 68.0641 27.017C67.7441 28.0197 67.2428 28.905 66.5601 29.673C65.8774 30.4197 64.9708 31.0063 63.8401 31.433C62.7308 31.8597 61.3868 32.073 59.8081 32.073ZM71.3584 31.625V14.825H75.9664V31.625H71.3584ZM73.6944 12.553C72.7984 12.553 72.105 12.361 71.6144 11.977C71.145 11.593 70.9104 11.0383 70.9104 10.313C70.9104 9.58767 71.145 9.033 71.6144 8.649C72.105 8.265 72.7984 8.073 73.6944 8.073C74.6117 8.073 75.305 8.265 75.7744 8.649C76.265 9.033 76.5104 9.58767 76.5104 10.313C76.5104 11.0383 76.265 11.593 75.7744 11.977C75.305 12.361 74.6117 12.553 73.6944 12.553ZM79.8271 31.625V21.673V14.825H83.6351L83.6031 20.329H84.1471C84.3818 18.985 84.7444 17.8757 85.2351 17.001C85.7471 16.1263 86.3978 15.4757 87.1871 15.049C87.9764 14.601 88.9151 14.377 90.0031 14.377C91.9231 14.377 93.3738 15.049 94.3551 16.393C95.3578 17.737 95.8591 19.817 95.8591 22.633V31.625H91.2511V23.145C91.2511 21.4597 90.9951 20.2223 90.4831 19.433C89.9924 18.6437 89.2564 18.249 88.2751 18.249C87.4431 18.249 86.7391 18.5157 86.1631 19.049C85.6084 19.561 85.1818 20.2863 84.8831 21.225C84.6058 22.1423 84.4564 23.209 84.4351 24.425V31.625H79.8271ZM107.323 32.073C105.894 32.073 104.646 31.881 103.579 31.497C102.513 31.0917 101.606 30.5157 100.859 29.769C100.134 29.0223 99.5794 28.1263 99.1954 27.081C98.8327 26.0357 98.6514 24.8517 98.6514 23.529C98.6514 22.2277 98.8327 21.0223 99.1954 19.913C99.558 18.7823 100.091 17.8117 100.795 17.001C101.499 16.169 102.374 15.529 103.419 15.081C104.465 14.6117 105.659 14.377 107.003 14.377C108.305 14.377 109.446 14.601 110.427 15.049C111.43 15.4757 112.262 16.105 112.923 16.937C113.585 17.769 114.054 18.7823 114.331 19.977C114.63 21.1717 114.726 22.5263 114.619 24.041L101.627 24.169V21.609L111.771 21.513L110.363 22.825C110.491 21.737 110.417 20.8303 110.139 20.105C109.883 19.3797 109.478 18.8463 108.923 18.505C108.369 18.1423 107.739 17.961 107.035 17.961C106.203 17.961 105.489 18.185 104.891 18.633C104.315 19.0597 103.867 19.6783 103.547 20.489C103.227 21.2997 103.067 22.281 103.067 23.433C103.067 25.225 103.441 26.5477 104.187 27.401C104.955 28.2543 106.001 28.681 107.323 28.681C107.921 28.681 108.422 28.6063 108.827 28.457C109.233 28.2863 109.563 28.073 109.819 27.817C110.097 27.5397 110.31 27.241 110.459 26.921C110.609 26.5797 110.715 26.2277 110.779 25.865L114.843 26.633C114.715 27.401 114.47 28.1157 114.107 28.777C113.766 29.4383 113.286 30.0143 112.667 30.505C112.07 30.9957 111.323 31.3797 110.427 31.657C109.553 31.9343 108.518 32.073 107.323 32.073ZM127.621 32.073C125.957 32.073 124.485 31.8383 123.205 31.369C121.925 30.8783 120.837 30.1637 119.941 29.225C119.066 28.2863 118.405 27.1557 117.957 25.833C117.509 24.489 117.285 22.9637 117.285 21.257C117.285 19.5077 117.509 17.9503 117.957 16.585C118.426 15.1983 119.098 14.025 119.973 13.065C120.869 12.0837 121.935 11.337 123.173 10.825C124.41 10.313 125.807 10.057 127.365 10.057C128.602 10.057 129.722 10.2277 130.725 10.569C131.749 10.889 132.613 11.3583 133.317 11.977C134.042 12.5957 134.597 13.3317 134.981 14.185C135.365 15.0383 135.557 15.9877 135.557 17.033L131.269 18.057C131.29 17.1397 131.109 16.3717 130.725 15.753C130.362 15.1343 129.871 14.665 129.253 14.345C128.634 14.0037 127.951 13.833 127.205 13.833C126.565 13.833 125.935 13.9717 125.317 14.249C124.698 14.505 124.143 14.921 123.653 15.497C123.183 16.0517 122.799 16.7877 122.501 17.705C122.223 18.601 122.085 19.6997 122.085 21.001C122.085 22.665 122.319 24.041 122.789 25.129C123.279 26.1957 123.951 26.9957 124.805 27.529C125.658 28.041 126.629 28.297 127.717 28.297C128.847 28.297 129.733 28.0623 130.373 27.593C131.034 27.1023 131.503 26.473 131.781 25.705C132.079 24.9157 132.229 24.073 132.229 23.177L136.325 23.785C136.346 24.937 136.197 26.0143 135.877 27.017C135.557 28.0197 135.055 28.905 134.373 29.673C133.69 30.4197 132.783 31.0063 131.653 31.433C130.543 31.8597 129.199 32.073 127.621 32.073ZM139.202 31.625V8.905H143.746V31.625H139.202ZM153.208 32.073C151.267 32.073 149.806 31.4117 148.824 30.089C147.864 28.745 147.384 26.7183 147.384 24.009V14.825H152.024V23.529C152.024 25.129 152.248 26.313 152.696 27.081C153.166 27.8277 153.891 28.201 154.872 28.201C155.448 28.201 155.96 28.0623 156.408 27.785C156.856 27.4863 157.23 27.0703 157.528 26.537C157.848 25.9823 158.094 25.3317 158.264 24.585C158.435 23.817 158.531 22.9743 158.552 22.057V14.825H163.16V24.553V31.625H159.384V26.057H158.872C158.616 27.465 158.243 28.617 157.752 29.513C157.283 30.3877 156.675 31.0383 155.928 31.465C155.182 31.8703 154.275 32.073 153.208 32.073ZM177.063 32.073C176.017 32.073 175.111 31.8703 174.343 31.465C173.575 31.0383 172.945 30.4197 172.455 29.609C171.964 28.7983 171.612 27.817 171.399 26.665H170.887V31.625H167.015V23.785V8.905H171.623V14.217C171.623 14.7503 171.591 15.3263 171.527 15.945C171.463 16.5423 171.377 17.1717 171.271 17.833C171.164 18.473 171.047 19.1343 170.919 19.817H171.527C171.783 18.665 172.145 17.6943 172.615 16.905C173.105 16.0943 173.724 15.4757 174.471 15.049C175.239 14.6223 176.135 14.409 177.159 14.409C178.524 14.409 179.708 14.7717 180.711 15.497C181.713 16.201 182.492 17.2143 183.047 18.537C183.601 19.8383 183.879 21.417 183.879 23.273C183.879 25.0863 183.601 26.6543 183.047 27.977C182.492 29.2997 181.703 30.313 180.679 31.017C179.676 31.721 178.471 32.073 177.063 32.073ZM175.495 28.329C176.22 28.329 176.86 28.1157 177.415 27.689C177.969 27.2623 178.385 26.6757 178.663 25.929C178.961 25.161 179.111 24.265 179.111 23.241C179.111 22.2383 178.972 21.3637 178.695 20.617C178.417 19.849 178.012 19.2517 177.479 18.825C176.945 18.377 176.305 18.153 175.559 18.153C175.068 18.153 174.609 18.249 174.183 18.441C173.777 18.633 173.415 18.889 173.095 19.209C172.775 19.529 172.497 19.9023 172.263 20.329C172.049 20.7343 171.889 21.1717 171.783 21.641C171.676 22.089 171.623 22.537 171.623 22.985V23.497C171.623 24.0517 171.697 24.617 171.847 25.193C172.017 25.7477 172.263 26.2597 172.583 26.729C172.903 27.1983 173.297 27.5823 173.767 27.881C174.257 28.1797 174.833 28.329 175.495 28.329ZM194.364 31.625V10.505H200.412L209.692 25.481H209.98L209.756 10.505H214.236V31.625H208.7L198.94 16.009H198.652L198.876 31.625H194.364ZM223.896 32.073C221.955 32.073 220.493 31.4117 219.512 30.089C218.552 28.745 218.072 26.7183 218.072 24.009V14.825H222.712V23.529C222.712 25.129 222.936 26.313 223.384 27.081C223.853 27.8277 224.579 28.201 225.56 28.201C226.136 28.201 226.648 28.0623 227.096 27.785C227.544 27.4863 227.917 27.0703 228.216 26.537C228.536 25.9823 228.781 25.3317 228.952 24.585C229.123 23.817 229.219 22.9743 229.24 22.057V14.825H233.848V24.553V31.625H230.072V26.057H229.56C229.304 27.465 228.931 28.617 228.44 29.513C227.971 30.3877 227.363 31.0383 226.616 31.465C225.869 31.8703 224.963 32.073 223.896 32.073ZM227.448 12.681H223.8L226.072 7.593H230.808L227.448 12.681ZM245.51 32.073C244.059 32.073 242.79 31.8597 241.702 31.433C240.635 31.0063 239.739 30.409 239.014 29.641C238.31 28.8517 237.777 27.9343 237.414 26.889C237.051 25.8223 236.87 24.6703 236.87 23.433C236.87 22.1317 237.051 20.937 237.414 19.849C237.777 18.7397 238.31 17.7797 239.014 16.969C239.739 16.137 240.625 15.497 241.67 15.049C242.737 14.601 243.963 14.377 245.35 14.377C246.801 14.377 248.038 14.6223 249.062 15.113C250.086 15.6037 250.897 16.2757 251.494 17.129C252.091 17.9823 252.465 18.9637 252.614 20.073L248.39 21.225C248.347 20.521 248.187 19.9343 247.91 19.465C247.633 18.9743 247.259 18.6117 246.79 18.377C246.321 18.121 245.777 17.993 245.158 17.993C244.582 17.993 244.07 18.1103 243.622 18.345C243.174 18.5583 242.79 18.8997 242.47 19.369C242.171 19.817 241.937 20.361 241.766 21.001C241.595 21.641 241.51 22.3877 241.51 23.241C241.51 24.393 241.659 25.3743 241.958 26.185C242.278 26.9743 242.737 27.5823 243.334 28.009C243.931 28.4143 244.678 28.617 245.574 28.617C246.406 28.617 247.067 28.4463 247.558 28.105C248.07 27.7423 248.433 27.2943 248.646 26.761C248.881 26.2277 249.019 25.673 249.062 25.097L253.126 25.833C253.083 26.6863 252.891 27.497 252.55 28.265C252.23 29.0117 251.75 29.673 251.11 30.249C250.491 30.825 249.713 31.273 248.774 31.593C247.857 31.913 246.769 32.073 245.51 32.073ZM255.577 31.625V8.905H260.121V31.625H255.577ZM271.823 32.073C270.394 32.073 269.146 31.881 268.079 31.497C267.013 31.0917 266.106 30.5157 265.359 29.769C264.634 29.0223 264.079 28.1263 263.695 27.081C263.333 26.0357 263.151 24.8517 263.151 23.529C263.151 22.2277 263.333 21.0223 263.695 19.913C264.058 18.7823 264.591 17.8117 265.295 17.001C265.999 16.169 266.874 15.529 267.919 15.081C268.965 14.6117 270.159 14.377 271.503 14.377C272.805 14.377 273.946 14.601 274.927 15.049C275.93 15.4757 276.762 16.105 277.423 16.937C278.085 17.769 278.554 18.7823 278.831 19.977C279.13 21.1717 279.226 22.5263 279.119 24.041L266.127 24.169V21.609L276.271 21.513L274.863 22.825C274.991 21.737 274.917 20.8303 274.639 20.105C274.383 19.3797 273.978 18.8463 273.423 18.505C272.869 18.1423 272.239 17.961 271.535 17.961C270.703 17.961 269.989 18.185 269.391 18.633C268.815 19.0597 268.367 19.6783 268.047 20.489C267.727 21.2997 267.567 22.281 267.567 23.433C267.567 25.225 267.941 26.5477 268.687 27.401C269.455 28.2543 270.501 28.681 271.823 28.681C272.421 28.681 272.922 28.6063 273.327 28.457C273.733 28.2863 274.063 28.073 274.319 27.817C274.597 27.5397 274.81 27.241 274.959 26.921C275.109 26.5797 275.215 26.2277 275.279 25.865L279.343 26.633C279.215 27.401 278.97 28.1157 278.607 28.777C278.266 29.4383 277.786 30.0143 277.167 30.505C276.57 30.9957 275.823 31.3797 274.927 31.657C274.053 31.9343 273.018 32.073 271.823 32.073ZM290.038 32.073C288.374 32.073 286.902 31.7423 285.622 31.081C284.363 30.3983 283.371 29.4063 282.646 28.105C281.92 26.7823 281.558 25.1503 281.558 23.209C281.558 21.2037 281.92 19.5503 282.646 18.249C283.392 16.9477 284.406 15.977 285.686 15.337C286.966 14.697 288.416 14.377 290.038 14.377C291.702 14.377 293.174 14.7077 294.454 15.369C295.734 16.0303 296.736 17.0223 297.462 18.345C298.208 19.6463 298.582 21.2783 298.582 23.241C298.582 25.2463 298.208 26.9103 297.462 28.233C296.715 29.5343 295.691 30.505 294.39 31.145C293.11 31.7637 291.659 32.073 290.038 32.073ZM290.198 28.649C291.008 28.649 291.691 28.457 292.246 28.073C292.8 27.6677 293.216 27.081 293.494 26.313C293.792 25.545 293.942 24.6063 293.942 23.497C293.942 22.3237 293.782 21.3317 293.462 20.521C293.163 19.689 292.715 19.0597 292.118 18.633C291.542 18.185 290.816 17.961 289.942 17.961C289.152 17.961 288.47 18.153 287.894 18.537C287.339 18.921 286.912 19.5077 286.614 20.297C286.336 21.065 286.198 22.0143 286.198 23.145C286.198 24.9157 286.55 26.281 287.254 27.241C287.958 28.1797 288.939 28.649 290.198 28.649Z" fill="white"/>
</svg>
