<svg width="230" height="217" viewBox="0 0 230 217" fill="none" xmlns="http://www.w3.org/2000/svg">
<path d="M12.7778 216.25C9.15741 216.25 6.12268 215.032 3.67361 212.597C1.22454 210.162 0 207.144 0 203.544C0 199.944 1.22454 196.926 3.67361 194.491C6.12268 192.056 9.15741 190.838 12.7778 190.838H140.556C144.176 190.838 147.211 192.056 149.66 194.491C152.109 196.926 153.333 199.944 153.333 203.544C153.333 207.144 152.109 210.162 149.66 212.597C147.211 215.032 144.176 216.25 140.556 216.25H12.7778ZM166.111 127.309C148.435 127.309 133.368 121.115 120.91 108.726C108.451 96.3382 102.222 81.3559 102.222 63.7794C102.222 46.2029 108.451 31.2206 120.91 18.8324C133.368 6.44412 148.435 0.25 166.111 0.25C183.787 0.25 198.854 6.44412 211.313 18.8324C223.771 31.2206 230 46.2029 230 63.7794C230 81.3559 223.771 96.3382 211.313 108.726C198.854 121.115 183.787 127.309 166.111 127.309ZM12.7778 114.603C9.15741 114.603 6.12268 113.385 3.67361 110.95C1.22454 108.515 0 105.497 0 101.897C0 98.2971 1.22454 95.2794 3.67361 92.8441C6.12268 90.4088 9.15741 89.1912 12.7778 89.1912H80.5C81.9907 93.85 83.6945 98.2971 85.6111 102.532C87.5278 106.768 89.8704 110.791 92.6389 114.603H12.7778ZM12.7778 165.426C9.15741 165.426 6.12268 164.209 3.67361 161.774C1.22454 159.338 0 156.321 0 152.721C0 149.121 1.22454 146.103 3.67361 143.668C6.12268 141.232 9.15741 140.015 12.7778 140.015H120.111C125.009 142.979 130.227 145.468 135.764 147.479C141.301 149.491 147.157 150.921 153.333 151.768V152.721C153.333 156.321 152.109 159.338 149.66 161.774C147.211 164.209 144.176 165.426 140.556 165.426H12.7778ZM166.111 76.4853C167.815 76.4853 169.306 75.85 170.583 74.5794C171.861 73.3088 172.5 71.8265 172.5 70.1324V32.0147C172.5 30.3206 171.861 28.8382 170.583 27.5676C169.306 26.2971 167.815 25.6618 166.111 25.6618C164.407 25.6618 162.917 26.2971 161.639 27.5676C160.361 28.8382 159.722 30.3206 159.722 32.0147V70.1324C159.722 71.8265 160.361 73.3088 161.639 74.5794C162.917 75.85 164.407 76.4853 166.111 76.4853ZM166.111 101.897C167.815 101.897 169.306 101.262 170.583 99.9912C171.861 98.7206 172.5 97.2382 172.5 95.5441C172.5 93.85 171.861 92.3676 170.583 91.0971C169.306 89.8265 167.815 89.1912 166.111 89.1912C164.407 89.1912 162.917 89.8265 161.639 91.0971C160.361 92.3676 159.722 93.85 159.722 95.5441C159.722 97.2382 160.361 98.7206 161.639 99.9912C162.917 101.262 164.407 101.897 166.111 101.897Z" fill="#123A4D"/>
</svg>
