<svg width="540" height="116" viewBox="0 0 540 116" fill="none" xmlns="http://www.w3.org/2000/svg">
<g opacity="0.5" clip-path="url(#clip0_1153_683)">
<path d="M142.87 64.1601C142.45 65.3401 141.75 66.3201 140.76 67.1001C139.77 67.8801 138.37 68.2701 136.57 68.2701C134.94 68.2701 133.44 67.8801 132.09 67.1001C130.74 66.3201 129.68 65.0901 128.91 63.4301C128.15 61.7601 127.76 59.5701 127.76 56.8701C127.76 54.7901 127.99 53.0501 128.44 51.6601C128.89 50.2701 129.5 49.1501 130.26 48.3001C131.02 47.4501 131.87 46.8401 132.79 46.4801C133.71 46.1101 134.6 45.9301 135.47 45.9301C136.55 45.9301 137.54 46.1601 138.47 46.6301C139.39 47.1001 140.15 47.7901 140.76 48.6901C141.37 49.5901 141.67 50.7601 141.67 52.1801L149.43 50.0401C149.4 48.3401 149.04 46.8201 148.36 45.4801C147.68 44.1401 146.74 43.0001 145.52 42.0401C144.3 41.0801 142.87 40.3701 141.22 39.8801C139.57 39.3901 137.76 39.1501 135.78 39.1501C133.28 39.1501 131 39.5401 128.95 40.3201C126.9 41.1001 125.12 42.2701 123.61 43.8401C122.1 45.4001 120.94 47.3101 120.15 49.5701C119.35 51.8301 118.95 54.4501 118.95 57.4401C118.95 60.4301 119.34 62.9001 120.12 65.0701C120.9 67.2401 122.05 69.0701 123.56 70.5701C125.07 72.0601 126.9 73.1801 129.06 73.9001C131.21 74.6301 133.64 74.9901 136.35 74.9901C139.06 74.9901 141.23 74.6601 143.07 74.0001C144.91 73.3401 146.4 72.4101 147.52 71.2101C148.65 70.0101 149.47 68.6001 149.99 66.9601C150.51 65.3301 150.79 63.5701 150.82 61.7001L143.53 60.5501C143.49 61.7701 143.27 62.9701 142.85 64.1401L142.87 64.1601Z" fill="#1D1D1B"/>
<path d="M159.75 34.99C158.15 34.99 156.93 35.33 156.08 36.01C155.23 36.69 154.8 37.69 154.8 39.01C154.8 40.26 155.22 41.22 156.08 41.9C156.93 42.58 158.15 42.92 159.75 42.92C161.35 42.92 162.62 42.58 163.48 41.9C164.33 41.22 164.76 40.24 164.76 38.96C164.76 37.68 164.33 36.69 163.48 36.02C162.63 35.34 161.39 35 159.75 35V34.99Z" fill="#1D1D1B"/>
<path d="M163.92 46.76H155.53V74.27H163.92V46.76Z" fill="#1D1D1B"/>
<path d="M187.99 46.03C186.25 46.03 184.74 46.35 183.46 46.99C182.17 47.63 181.12 48.61 180.28 49.93C179.44 51.25 178.8 52.88 178.35 54.83H177.31L177.21 46.75H170.44V74.26H178.83V61.76C178.83 60.13 179.04 58.65 179.46 57.33C179.88 56.01 180.51 54.95 181.36 54.15C182.21 53.35 183.3 52.95 184.62 52.95C186.22 52.95 187.42 53.6 188.24 54.9C189.06 56.2 189.46 58.28 189.46 61.13V74.26H197.9V60.19C197.9 55.26 197.06 51.66 195.37 49.4C193.68 47.14 191.23 46.01 188 46.01L187.99 46.03Z" fill="#1D1D1B"/>
<path d="M221.77 66.3C221.54 66.79 221.23 67.23 220.83 67.63C220.43 68.03 219.92 68.36 219.29 68.62C218.66 68.88 217.88 69.01 216.95 69.01C215.04 69.01 213.47 68.37 212.23 67.08C211.22 66.02 210.63 64.43 210.45 62.32L229.4 62.18C229.57 59.61 229.4 57.33 228.88 55.33C228.36 53.33 227.55 51.64 226.46 50.25C225.37 48.86 223.98 47.81 222.29 47.1C220.6 46.39 218.65 46.03 216.43 46.03C214.21 46.03 212.27 46.4 210.52 47.12C208.77 47.85 207.29 48.88 206.09 50.22C204.89 51.56 203.97 53.15 203.33 54.99C202.69 56.83 202.37 58.85 202.37 61.03C202.37 63.21 202.7 65.29 203.36 67.02C204.02 68.76 204.98 70.22 206.25 71.4C207.52 72.58 209.05 73.48 210.86 74.08C212.67 74.69 214.71 74.99 217.01 74.99C218.99 74.99 220.7 74.79 222.14 74.39C223.58 73.99 224.81 73.41 225.84 72.64C226.86 71.88 227.68 70.97 228.29 69.93C228.9 68.89 229.34 67.72 229.62 66.44L222.33 64.88C222.19 65.33 222.01 65.8 221.78 66.29L221.77 66.3ZM213.33 53.43C214.25 52.77 215.32 52.44 216.53 52.44C217.54 52.44 218.47 52.69 219.34 53.19C220.21 53.69 220.87 54.49 221.32 55.59C221.58 56.23 221.71 56.98 221.74 57.83L210.67 57.93C210.79 57.34 210.95 56.79 211.16 56.29C211.68 55.04 212.4 54.08 213.32 53.42L213.33 53.43Z" fill="#1D1D1B"/>
<path d="M257.54 64.1601C257.12 65.3401 256.42 66.3201 255.43 67.1001C254.44 67.8801 253.04 68.2701 251.24 68.2701C249.61 68.2701 248.11 67.8801 246.76 67.1001C245.4 66.3201 244.35 65.0901 243.58 63.4301C242.81 61.7601 242.43 59.5701 242.43 56.8701C242.43 54.7901 242.65 53.0501 243.11 51.6601C243.56 50.2701 244.17 49.1501 244.93 48.3001C245.69 47.4501 246.54 46.8401 247.46 46.4801C248.38 46.1101 249.27 45.9301 250.14 45.9301C251.22 45.9301 252.21 46.1601 253.13 46.6301C254.05 47.1001 254.82 47.7901 255.42 48.6901C256.03 49.5901 256.33 50.7601 256.33 52.1801L264.09 50.0401C264.05 48.3401 263.7 46.8201 263.02 45.4801C262.34 44.1401 261.4 43.0001 260.18 42.0401C258.96 41.0801 257.53 40.3701 255.88 39.8801C254.23 39.3901 252.42 39.1501 250.44 39.1501C247.94 39.1501 245.66 39.5401 243.61 40.3201C241.56 41.1001 239.78 42.2701 238.27 43.8401C236.76 45.4001 235.6 47.3101 234.81 49.5701C234.01 51.8301 233.61 54.4501 233.61 57.4401C233.61 60.4301 234 62.9001 234.78 65.0701C235.56 67.2401 236.71 69.0701 238.22 70.5701C239.73 72.0601 241.56 73.1801 243.72 73.9001C245.87 74.6301 248.3 74.9901 251.01 74.9901C253.72 74.9901 255.89 74.6601 257.73 74.0001C259.57 73.3401 261.06 72.4101 262.19 71.2101C263.32 70.0101 264.14 68.6001 264.66 66.9601C265.18 65.3301 265.46 63.5701 265.49 61.7001L258.2 60.5501C258.16 61.7701 257.94 62.9701 257.52 64.1401L257.54 64.1601Z" fill="#1D1D1B"/>
<path d="M278.43 36.76H270.2V74.27H278.43V36.76Z" fill="#1D1D1B"/>
<path d="M303.13 58.9C303.13 60.22 303.02 61.44 302.79 62.55C302.56 63.66 302.22 64.64 301.75 65.49C301.28 66.34 300.71 67 300.03 67.47C299.35 67.94 298.54 68.17 297.61 68.17C296.05 68.17 294.88 67.54 294.12 66.27C293.36 65 292.97 63.08 292.97 60.51V46.76H284.53V61.61C284.53 66.13 285.35 69.49 287 71.69C288.65 73.9 291.11 75 294.37 75C296.11 75 297.57 74.69 298.75 74.06C299.93 73.44 300.91 72.44 301.69 71.06C302.47 69.69 303.12 67.93 303.64 65.77H304.68L304.84 74.26H311.51V46.75H303.12V58.89L303.13 58.9Z" fill="#1D1D1B"/>
<path d="M341.45 47.91C339.76 46.73 337.78 46.14 335.48 46.14C333.85 46.14 332.43 46.46 331.23 47.1C330.03 47.74 329.03 48.69 328.23 49.94C327.43 51.19 326.79 52.75 326.3 54.63H325.1C325.31 53.48 325.51 52.41 325.7 51.4C325.89 50.39 326.05 49.43 326.17 48.51C326.29 47.59 326.35 46.71 326.35 45.88V36.76H317.96V74.27H324.84L325 66.14H325.99C326.27 68.09 326.81 69.72 327.63 71.04C328.45 72.36 329.51 73.35 330.81 74.01C332.11 74.67 333.63 75 335.37 75C337.73 75 339.76 74.42 341.47 73.25C343.17 72.09 344.48 70.44 345.4 68.3C346.32 66.16 346.78 63.64 346.78 60.72C346.78 57.8 346.31 55.1 345.37 52.93C344.43 50.76 343.12 49.08 341.44 47.9L341.45 47.91ZM337.28 64.55C336.81 65.71 336.14 66.62 335.27 67.26C334.4 67.9 333.39 68.22 332.25 68.22C331.17 68.22 330.26 67.99 329.51 67.52C328.76 67.05 328.16 66.45 327.69 65.72C327.22 64.99 326.88 64.21 326.67 63.38C326.46 62.55 326.36 61.76 326.36 61.04V59.95C326.36 59.29 326.45 58.62 326.62 57.94C326.79 57.26 327.05 56.62 327.4 56.01C327.75 55.4 328.16 54.86 328.65 54.37C329.14 53.88 329.7 53.5 330.34 53.22C330.98 52.94 331.69 52.8 332.45 52.8C333.6 52.8 334.58 53.11 335.39 53.74C336.2 54.37 336.84 55.24 337.29 56.37C337.74 57.5 337.97 58.86 337.97 60.46C337.97 62.06 337.74 63.39 337.27 64.55H337.28Z" fill="#1D1D1B"/>
<path d="M389.98 62.9601H389.35L374.61 39.8801H363.72V74.2701H371.9L371.43 49.8901H372L387.79 74.2701H397.63V39.8801H389.45L389.98 62.9601Z" fill="#1D1D1B"/>
<path d="M426.08 34.1001H417.9L413.94 43.1701H420.24L426.08 34.1001Z" fill="#1D1D1B"/>
<path d="M422.69 58.9C422.69 60.22 422.58 61.44 422.35 62.55C422.12 63.66 421.78 64.64 421.31 65.49C420.84 66.34 420.27 67 419.59 67.47C418.91 67.94 418.1 68.17 417.17 68.17C415.61 68.17 414.44 67.54 413.68 66.27C412.92 65 412.53 63.08 412.53 60.51V46.76H404.09V61.61C404.09 66.13 404.91 69.49 406.56 71.69C408.21 73.9 410.67 75 413.93 75C415.67 75 417.13 74.69 418.31 74.06C419.49 73.44 420.47 72.44 421.25 71.06C422.03 69.69 422.68 67.93 423.2 65.77H424.24L424.4 74.26H431.07V46.75H422.68V58.89L422.69 58.9Z" fill="#1D1D1B"/>
<path d="M455.46 65.96C455.11 66.78 454.56 67.46 453.79 68.02C453.03 68.58 451.97 68.85 450.61 68.85C449.25 68.85 448.17 68.54 447.25 67.91C446.33 67.28 445.63 66.36 445.17 65.12C444.7 63.89 444.47 62.35 444.47 60.51C444.47 59.22 444.59 58.09 444.84 57.1C445.08 56.11 445.43 55.27 445.88 54.57C446.33 53.88 446.89 53.35 447.55 53.01C448.21 52.66 448.97 52.49 449.84 52.49C450.71 52.49 451.45 52.66 452.16 52.99C452.87 53.32 453.45 53.85 453.91 54.58C454.36 55.31 454.64 56.25 454.74 57.39L462.5 54.78C462.12 53.04 461.4 51.52 460.34 50.2C459.28 48.88 457.92 47.86 456.25 47.13C454.58 46.4 452.6 46.04 450.31 46.04C448.02 46.04 445.98 46.4 444.21 47.11C442.44 47.82 440.94 48.84 439.73 50.16C438.51 51.48 437.59 53.04 436.94 54.85C436.29 56.66 435.98 58.67 435.98 60.89C435.98 63.11 436.3 64.99 436.94 66.72C437.58 68.46 438.51 69.94 439.73 71.18C440.95 72.41 442.46 73.36 444.26 74.02C446.07 74.68 448.15 75.01 450.51 75.01C452.7 75.01 454.56 74.75 456.11 74.23C457.65 73.71 458.95 72.99 459.99 72.07C461.03 71.15 461.82 70.09 462.36 68.89C462.9 67.69 463.24 66.45 463.38 65.16L456.09 63.54C456.02 64.34 455.81 65.15 455.47 65.96H455.46Z" fill="#1D1D1B"/>
<path d="M475.52 36.76H467.29V74.27H475.52V36.76Z" fill="#1D1D1B"/>
<path d="M499.88 66.3C499.65 66.79 499.34 67.23 498.94 67.63C498.54 68.03 498.03 68.36 497.4 68.62C496.77 68.88 495.99 69.01 495.06 69.01C493.15 69.01 491.58 68.37 490.35 67.08C489.34 66.02 488.75 64.43 488.57 62.32L507.52 62.18C507.69 59.61 507.52 57.33 507 55.33C506.48 53.33 505.67 51.64 504.58 50.25C503.49 48.86 502.1 47.81 500.41 47.1C498.72 46.39 496.77 46.03 494.55 46.03C492.33 46.03 490.39 46.4 488.64 47.12C486.89 47.85 485.41 48.88 484.21 50.22C483.01 51.56 482.09 53.15 481.45 54.99C480.81 56.83 480.49 58.85 480.49 61.03C480.49 63.21 480.82 65.29 481.48 67.02C482.14 68.76 483.1 70.22 484.37 71.4C485.64 72.58 487.17 73.48 488.98 74.08C490.79 74.69 492.84 74.99 495.13 74.99C497.11 74.99 498.82 74.79 500.26 74.39C501.7 73.99 502.93 73.41 503.96 72.64C504.98 71.88 505.8 70.97 506.41 69.93C507.02 68.89 507.46 67.72 507.74 66.44L500.45 64.88C500.31 65.33 500.13 65.8 499.9 66.29L499.88 66.3ZM491.44 53.43C492.36 52.77 493.43 52.44 494.64 52.44C495.65 52.44 496.59 52.69 497.45 53.19C498.32 53.69 498.98 54.49 499.43 55.59C499.69 56.23 499.82 56.98 499.85 57.83L488.78 57.93C488.9 57.34 489.06 56.79 489.27 56.29C489.79 55.04 490.51 54.08 491.43 53.42L491.44 53.43Z" fill="#1D1D1B"/>
<path d="M538.09 52.47C536.87 50.33 535.19 48.73 533.04 47.65C530.89 46.57 528.42 46.03 525.64 46.03C522.86 46.03 520.39 46.56 518.24 47.62C516.09 48.68 514.4 50.28 513.19 52.41C511.97 54.55 511.37 57.23 511.37 60.46C511.37 63.69 511.98 66.38 513.19 68.54C514.4 70.7 516.08 72.31 518.22 73.38C520.36 74.46 522.81 75 525.59 75C528.37 75 530.74 74.49 532.91 73.46C535.08 72.44 536.79 70.85 538.04 68.69C539.29 66.54 539.92 63.81 539.92 60.51C539.92 57.21 539.31 54.6 538.1 52.46L538.09 52.47ZM530.85 65.41C530.43 66.59 529.81 67.47 528.97 68.04C528.14 68.61 527.09 68.9 525.84 68.9C523.93 68.9 522.44 68.19 521.38 66.76C520.32 65.34 519.79 63.2 519.79 60.35C519.79 58.58 520 57.1 520.41 55.92C520.83 54.74 521.46 53.86 522.31 53.29C523.16 52.72 524.18 52.43 525.36 52.43C526.75 52.43 527.89 52.77 528.77 53.45C529.66 54.13 530.32 55.1 530.78 56.37C531.23 57.64 531.46 59.19 531.46 61.03C531.46 62.77 531.25 64.23 530.84 65.41H530.85Z" fill="#1D1D1B"/>
<path d="M85.2501 85.5L97.9801 98.23C75.5901 120.61 39.1701 120.61 16.7901 98.23C-5.59994 75.83 -5.59994 39.43 16.7901 17.04C39.1701 -5.35003 75.5901 -5.35003 97.9801 17.03L85.2501 29.76C69.8801 14.39 44.8801 14.39 29.5101 29.76C14.1501 45.13 14.1501 70.13 29.5101 85.5C44.8801 100.87 69.8801 100.87 85.2501 85.5Z" fill="#123A4C"/>
<path d="M85.2498 85.5C69.8798 100.87 44.8798 100.87 29.5098 85.5L42.2398 72.77C50.5998 81.13 64.1598 81.13 72.5198 72.77C80.8898 64.41 80.8898 50.85 72.5198 42.49C64.1598 34.13 50.5998 34.13 42.2398 42.49L29.5098 29.76C44.8798 14.39 69.8798 14.39 85.2498 29.76C100.62 45.13 100.62 70.13 85.2498 85.5Z" fill="#CADB79"/>
<path d="M72.5202 72.77C64.1602 81.13 50.6002 81.13 42.2402 72.77C33.8802 64.41 33.8802 50.85 42.2402 42.49C50.6002 34.13 64.1602 34.13 72.5202 42.49C80.8902 50.85 80.8902 64.41 72.5202 72.77Z" fill="#292B21"/>
</g>
<defs>
<clipPath id="clip0_1153_683">
<rect width="539.92" height="114.77" fill="white" transform="translate(0 0.25)"/>
</clipPath>
</defs>
</svg>
