<svg width="20" height="21" viewBox="0 0 20 21" fill="none" xmlns="http://www.w3.org/2000/svg">
<path opacity="0.5" d="M5.8 0.890137H14.2C17.4 0.890137 20 3.49014 20 6.69014V15.0901C20 16.6284 19.3889 18.1036 18.3012 19.1914C17.2135 20.2791 15.7383 20.8901 14.2 20.8901H5.8C2.6 20.8901 0 18.2901 0 15.0901V6.69014C0 5.15188 0.61107 3.67663 1.69878 2.58892C2.78649 1.50121 4.26174 0.890137 5.8 0.890137ZM5.6 2.89014C4.64522 2.89014 3.72955 3.26942 3.05442 3.94455C2.37928 4.61968 2 5.53536 2 6.49014V15.2901C2 17.2801 3.61 18.8901 5.6 18.8901H14.4C15.3548 18.8901 16.2705 18.5109 16.9456 17.8357C17.6207 17.1606 18 16.2449 18 15.2901V6.49014C18 4.50014 16.39 2.89014 14.4 2.89014H5.6ZM15.25 4.39014C15.5815 4.39014 15.8995 4.52183 16.1339 4.75625C16.3683 4.99067 16.5 5.30862 16.5 5.64014C16.5 5.97166 16.3683 6.2896 16.1339 6.52402C15.8995 6.75844 15.5815 6.89014 15.25 6.89014C14.9185 6.89014 14.6005 6.75844 14.3661 6.52402C14.1317 6.2896 14 5.97166 14 5.64014C14 5.30862 14.1317 4.99067 14.3661 4.75625C14.6005 4.52183 14.9185 4.39014 15.25 4.39014ZM10 5.89014C11.3261 5.89014 12.5979 6.41692 13.5355 7.3546C14.4732 8.29228 15 9.56405 15 10.8901C15 12.2162 14.4732 13.488 13.5355 14.4257C12.5979 15.3634 11.3261 15.8901 10 15.8901C8.67392 15.8901 7.40215 15.3634 6.46447 14.4257C5.52678 13.488 5 12.2162 5 10.8901C5 9.56405 5.52678 8.29228 6.46447 7.3546C7.40215 6.41692 8.67392 5.89014 10 5.89014ZM10 7.89014C9.20435 7.89014 8.44129 8.20621 7.87868 8.76882C7.31607 9.33142 7 10.0945 7 10.8901C7 11.6858 7.31607 12.4488 7.87868 13.0115C8.44129 13.5741 9.20435 13.8901 10 13.8901C10.7956 13.8901 11.5587 13.5741 12.1213 13.0115C12.6839 12.4488 13 11.6858 13 10.8901C13 10.0945 12.6839 9.33142 12.1213 8.76882C11.5587 8.20621 10.7956 7.89014 10 7.89014Z" fill="#292B21"/>
</svg>
