<svg width="248" height="109" viewBox="0 0 248 109" fill="none" xmlns="http://www.w3.org/2000/svg">
<path d="M17.0847 0.25L20.9205 12.6877H33.3333L23.2911 20.3746L27.1269 32.8123L17.0847 25.1254L7.04258 32.8123L10.8783 20.3746L0.836187 12.6877H13.249L17.0847 0.25Z" fill="#CCE876"/>
<path d="M56.7459 0.25L60.5816 12.6877H72.9944L62.9523 20.3746L66.788 32.8123L56.7459 25.1254L46.7037 32.8123L50.5395 20.3746L40.4973 12.6877H52.9101L56.7459 0.25Z" fill="#CCE876"/>
<path d="M96.7121 0.25L100.616 12.6877H113.251L103.029 20.3746L106.934 32.8123L96.7121 25.1254L86.4906 32.8123L90.3949 20.3746L80.1734 12.6877H92.8078L96.7121 0.25Z" fill="#CCE876"/>
<path d="M136.373 0.25L140.277 12.6877H152.912L142.69 20.3746L146.595 32.8123L136.373 25.1254L126.152 32.8123L130.056 20.3746L119.835 12.6877H132.469L136.373 0.25Z" fill="#444242" fill-opacity="0.56"/>
<path d="M176.339 0.25L180.174 12.6877H192.587L182.545 20.3746L186.381 32.8123L176.339 25.1254L166.296 32.8123L170.132 20.3746L160.09 12.6877H172.503L176.339 0.25Z" fill="#444242" fill-opacity="0.56"/>
<path d="M5.1 93.25C4.22 92.57 3.47333 91.7567 2.86 90.81C2.26 89.85 1.80667 88.8167 1.5 87.71C1.19333 86.59 1.04 85.45 1.04 84.29C1.04 83.1167 1.2 81.9767 1.52 80.87C1.84 79.7633 2.32667 78.73 2.98 77.77C3.64667 76.81 4.48 75.97 5.48 75.25H7.92V75.43C6.86667 76.2167 6 77.0967 5.32 78.07C4.64 79.03 4.13333 80.0433 3.8 81.11C3.48 82.1633 3.32 83.2233 3.32 84.29C3.32 85.3433 3.48 86.3967 3.8 87.45C4.12 88.5033 4.59333 89.51 5.22 90.47C5.84667 91.43 6.62 92.2967 7.54 93.07V93.25H5.1ZM12.6486 91.25H10.2686V77.25H12.9286L17.6486 88.13L22.3686 77.25H25.0086V91.25H22.6486V81.79L18.5486 91.25H16.7486L12.6486 81.79V91.25ZM33.7044 76.69V78.45L29.7644 80.37V78.83L33.7044 76.69ZM33.7844 91.25L33.5844 90.03C33.2644 90.4567 32.8844 90.7833 32.4444 91.01C32.0044 91.2367 31.4177 91.35 30.6844 91.35C29.991 91.35 29.391 91.2367 28.8844 91.01C28.3777 90.77 27.9844 90.4433 27.7044 90.03C27.4377 89.6033 27.3044 89.11 27.3044 88.55C27.3044 87.71 27.611 87.01 28.2244 86.45C28.851 85.8767 29.7644 85.5233 30.9644 85.39L33.5844 85.11V84.33C33.5844 84.01 33.4444 83.7233 33.1644 83.47C32.8844 83.2033 32.4377 83.07 31.8244 83.07C31.291 83.07 30.8244 83.2033 30.4244 83.47C30.0377 83.7233 29.7777 84.11 29.6444 84.63L27.6844 83.91C27.9377 83.03 28.4377 82.3433 29.1844 81.85C29.9444 81.3567 30.8644 81.11 31.9444 81.11C33.251 81.11 34.231 81.4367 34.8844 82.09C35.5377 82.7433 35.8644 83.5767 35.8644 84.59V91.25H33.7844ZM33.5844 86.85L31.1844 87.15C30.6777 87.2167 30.2977 87.3633 30.0444 87.59C29.791 87.8033 29.6644 88.0767 29.6644 88.41C29.6644 88.7167 29.7844 88.9833 30.0244 89.21C30.2777 89.4233 30.6177 89.53 31.0444 89.53C31.591 89.53 32.051 89.43 32.4244 89.23C32.811 89.03 33.0977 88.7433 33.2844 88.37C33.4844 87.9967 33.5844 87.5367 33.5844 86.99V86.85ZM39.8113 88.03C39.9046 88.4033 40.0646 88.69 40.2913 88.89C40.5313 89.09 40.7913 89.23 41.0713 89.31C41.3513 89.3767 41.6179 89.41 41.8713 89.41C42.3913 89.41 42.7979 89.31 43.0913 89.11C43.3979 88.8967 43.5513 88.63 43.5513 88.31C43.5513 88.0433 43.4513 87.8367 43.2513 87.69C43.0513 87.5433 42.7913 87.43 42.4713 87.35C42.1646 87.2567 41.8446 87.1633 41.5113 87.07C41.1513 86.9767 40.7646 86.87 40.3513 86.75C39.9513 86.63 39.5713 86.4633 39.2113 86.25C38.8513 86.0367 38.5579 85.7633 38.3313 85.43C38.1046 85.0967 37.9913 84.6833 37.9913 84.19C37.9913 83.5633 38.1646 83.0233 38.5113 82.57C38.8579 82.1033 39.3313 81.7433 39.9313 81.49C40.5313 81.2367 41.2046 81.11 41.9513 81.11C42.8446 81.11 43.6179 81.2967 44.2713 81.67C44.9246 82.0433 45.3979 82.59 45.6913 83.31L43.7113 83.95C43.6179 83.7633 43.4779 83.6033 43.2913 83.47C43.1179 83.3367 42.9046 83.2433 42.6513 83.19C42.4113 83.1233 42.1646 83.09 41.9113 83.09C41.4846 83.09 41.1246 83.1767 40.8313 83.35C40.5379 83.5233 40.3913 83.77 40.3913 84.09C40.3913 84.25 40.4379 84.39 40.5313 84.51C40.6379 84.63 40.7779 84.73 40.9513 84.81C41.1246 84.8767 41.3313 84.9433 41.5713 85.01C41.8113 85.0633 42.0646 85.13 42.3313 85.21C42.7579 85.33 43.1779 85.4633 43.5913 85.61C44.0179 85.7433 44.4046 85.9167 44.7513 86.13C45.1113 86.3433 45.3913 86.6233 45.5913 86.97C45.8046 87.3167 45.9246 87.7567 45.9513 88.29C45.9513 88.8633 45.7846 89.39 45.4513 89.87C45.1179 90.3367 44.6379 90.71 44.0113 90.99C43.3979 91.2567 42.6646 91.39 41.8113 91.39C40.8246 91.39 39.9779 91.1767 39.2713 90.75C38.5646 90.3233 38.0846 89.6367 37.8313 88.69L39.8113 88.03ZM61.0438 82.73L60.7838 82.79V76.85H63.0438V91.25H61.0038L60.8438 90.01C60.4971 90.3967 60.0571 90.7233 59.5238 90.99C58.9904 91.2567 58.3571 91.39 57.6237 91.39C56.7304 91.39 55.9438 91.1767 55.2638 90.75C54.5971 90.3233 54.0771 89.7233 53.7038 88.95C53.3304 88.1767 53.1438 87.2767 53.1438 86.25C53.1438 85.2233 53.3304 84.3233 53.7038 83.55C54.0771 82.7767 54.5971 82.1767 55.2638 81.75C55.9438 81.3233 56.7304 81.11 57.6237 81.11C58.4104 81.11 59.0971 81.27 59.6838 81.59C60.2704 81.8967 60.7238 82.2767 61.0438 82.73ZM55.5638 86.25C55.5638 87.17 55.8038 87.9167 56.2838 88.49C56.7638 89.0633 57.3904 89.35 58.1638 89.35C58.6304 89.35 59.0571 89.23 59.4438 88.99C59.8438 88.75 60.1638 88.4033 60.4038 87.95C60.6571 87.4833 60.7838 86.9167 60.7838 86.25C60.7838 85.5833 60.6571 85.0233 60.4038 84.57C60.1638 84.1033 59.8438 83.75 59.4438 83.51C59.0571 83.27 58.6304 83.15 58.1638 83.15C57.3904 83.15 56.7638 83.4367 56.2838 84.01C55.8038 84.5833 55.5638 85.33 55.5638 86.25ZM70.1755 91.39C69.1755 91.39 68.2955 91.17 67.5355 90.73C66.7888 90.29 66.2021 89.6767 65.7755 88.89C65.3621 88.1033 65.1555 87.1967 65.1555 86.17C65.1555 85.1967 65.3621 84.33 65.7755 83.57C66.1888 82.81 66.7621 82.21 67.4955 81.77C68.2288 81.33 69.0621 81.11 69.9955 81.11C70.9421 81.11 71.7755 81.3167 72.4955 81.73C73.2155 82.1433 73.7755 82.7233 74.1755 83.47C74.5888 84.2033 74.7955 85.0567 74.7955 86.03C74.7955 86.19 74.7888 86.3633 74.7755 86.55C74.7621 86.7233 74.7421 86.91 74.7155 87.11H67.5955C67.6621 87.5767 67.8088 87.9833 68.0355 88.33C68.2755 88.6633 68.5755 88.9233 68.9355 89.11C69.2955 89.2967 69.7088 89.39 70.1755 89.39C70.7355 89.39 71.2355 89.2767 71.6755 89.05C72.1288 88.8233 72.4421 88.5233 72.6155 88.15L74.5955 88.81C74.1955 89.61 73.6021 90.2433 72.8155 90.71C72.0288 91.1633 71.1488 91.39 70.1755 91.39ZM72.3355 85.27C72.3221 84.8567 72.2088 84.4833 71.9955 84.15C71.7821 83.8167 71.5021 83.5567 71.1555 83.37C70.8088 83.17 70.4221 83.07 69.9955 83.07C69.6221 83.07 69.2688 83.1633 68.9355 83.35C68.6021 83.5367 68.3155 83.7967 68.0755 84.13C67.8488 84.45 67.7021 84.83 67.6355 85.27H72.3355ZM83.8114 79.23H81.9314V77.25H86.1714V91.25H83.8114V79.23ZM88.8363 84.25C88.8363 83.21 88.9163 82.2567 89.0763 81.39C89.2363 80.51 89.5163 79.7567 89.9163 79.13C90.3163 78.49 90.8496 77.9967 91.5163 77.65C92.1963 77.29 93.0496 77.11 94.0763 77.11C95.1029 77.11 95.9496 77.29 96.6163 77.65C97.2829 77.9967 97.8163 78.49 98.2162 79.13C98.6163 79.7567 98.8963 80.51 99.0563 81.39C99.2163 82.2567 99.2963 83.21 99.2963 84.25C99.2963 85.3033 99.2163 86.27 99.0563 87.15C98.8963 88.03 98.6163 88.7833 98.2162 89.41C97.8163 90.0367 97.2829 90.5233 96.6163 90.87C95.9496 91.2167 95.1029 91.39 94.0763 91.39C93.0496 91.39 92.1963 91.2167 91.5163 90.87C90.8496 90.5233 90.3163 90.0367 89.9163 89.41C89.5163 88.7833 89.2363 88.03 89.0763 87.15C88.9163 86.27 88.8363 85.3033 88.8363 84.25ZM96.8963 84.25C96.8963 83.5833 96.8696 82.9433 96.8163 82.33C96.7629 81.7167 96.6429 81.17 96.4563 80.69C96.2696 80.1967 95.9896 79.8167 95.6163 79.55C95.2429 79.27 94.7296 79.13 94.0763 79.13C93.4229 79.13 92.9029 79.27 92.5163 79.55C92.1429 79.8167 91.8629 80.1967 91.6763 80.69C91.4896 81.17 91.3696 81.7167 91.3163 82.33C91.2629 82.9433 91.2363 83.5833 91.2363 84.25C91.2363 84.9567 91.2629 85.6233 91.3163 86.25C91.3696 86.8633 91.4896 87.4033 91.6763 87.87C91.8629 88.3367 92.1429 88.7033 92.5163 88.97C92.9029 89.2367 93.4229 89.37 94.0763 89.37C94.7296 89.37 95.2429 89.2367 95.6163 88.97C95.9896 88.7033 96.2696 88.3367 96.4563 87.87C96.6429 87.4033 96.7629 86.8633 96.8163 86.25C96.8696 85.6233 96.8963 84.9567 96.8963 84.25ZM101.489 89.53L105.489 85.81C106.222 85.1033 106.809 84.5033 107.249 84.01C107.689 83.5167 108.002 83.0633 108.189 82.65C108.375 82.2233 108.469 81.7833 108.469 81.33C108.469 80.69 108.295 80.1633 107.949 79.75C107.602 79.3367 107.009 79.13 106.169 79.13C105.662 79.13 105.229 79.2433 104.869 79.47C104.522 79.6967 104.249 80.0233 104.049 80.45C103.862 80.8767 103.762 81.3767 103.749 81.95H101.469C101.495 80.8433 101.715 79.9367 102.129 79.23C102.555 78.51 103.122 77.9767 103.829 77.63C104.549 77.2833 105.335 77.11 106.189 77.11C107.189 77.11 108.035 77.29 108.729 77.65C109.435 77.9967 109.969 78.49 110.329 79.13C110.702 79.7567 110.889 80.4833 110.889 81.31C110.889 81.91 110.775 82.4967 110.549 83.07C110.335 83.63 109.969 84.23 109.449 84.87C108.929 85.51 108.215 86.2433 107.309 87.07L104.889 89.27H111.229V91.25H101.489V89.53ZM122.664 77.25V79.23H116.204V82.95C116.47 82.59 116.837 82.3033 117.304 82.09C117.784 81.8767 118.35 81.77 119.004 81.77C119.857 81.77 120.577 81.9233 121.164 82.23C121.764 82.5233 122.244 82.9033 122.604 83.37C122.977 83.8367 123.244 84.3433 123.404 84.89C123.577 85.4233 123.664 85.9367 123.664 86.43C123.664 87.3767 123.464 88.2233 123.064 88.97C122.664 89.7167 122.084 90.31 121.324 90.75C120.577 91.1767 119.677 91.39 118.624 91.39C117.61 91.39 116.744 91.2233 116.024 90.89C115.304 90.5433 114.73 90.07 114.304 89.47C113.89 88.87 113.63 88.1833 113.524 87.41H115.824C115.97 88.01 116.284 88.49 116.764 88.85C117.244 89.1967 117.864 89.37 118.624 89.37C119.224 89.37 119.717 89.25 120.104 89.01C120.49 88.77 120.777 88.4367 120.964 88.01C121.15 87.5833 121.244 87.0767 121.244 86.49C121.244 85.6367 121.017 84.97 120.564 84.49C120.11 83.9967 119.464 83.75 118.624 83.75C117.97 83.75 117.424 83.9167 116.984 84.25C116.557 84.5833 116.257 85.0167 116.084 85.55H113.824V77.25H122.664ZM133.251 81.25L135.871 88.85L138.511 81.25H140.891L137.091 91.25H134.611L130.831 81.25H133.251ZM147.128 91.39C146.168 91.39 145.308 91.1833 144.548 90.77C143.788 90.3433 143.195 89.75 142.768 88.99C142.341 88.2167 142.128 87.31 142.128 86.27C142.128 85.2167 142.348 84.3033 142.788 83.53C143.228 82.7567 143.835 82.1633 144.608 81.75C145.381 81.3233 146.241 81.11 147.188 81.11C148.148 81.11 149.008 81.3233 149.768 81.75C150.541 82.1633 151.155 82.7567 151.608 83.53C152.061 84.29 152.288 85.19 152.288 86.23C152.288 87.2833 152.055 88.1967 151.588 88.97C151.135 89.7433 150.515 90.3433 149.728 90.77C148.955 91.1833 148.088 91.39 147.128 91.39ZM147.108 89.37C147.575 89.37 148.015 89.2567 148.428 89.03C148.855 88.8033 149.201 88.4633 149.468 88.01C149.735 87.5433 149.868 86.95 149.868 86.23C149.868 85.5367 149.741 84.9633 149.488 84.51C149.235 84.0433 148.901 83.6967 148.488 83.47C148.075 83.2433 147.628 83.13 147.148 83.13C146.681 83.13 146.248 83.2433 145.848 83.47C145.461 83.6967 145.148 84.0433 144.908 84.51C144.668 84.9633 144.548 85.55 144.548 86.27C144.548 86.9633 144.661 87.5433 144.888 88.01C145.128 88.4633 145.441 88.8033 145.828 89.03C146.215 89.2567 146.641 89.37 147.108 89.37ZM155.046 81.25V78.45H157.346V81.25H159.686V83.23H157.346V87.67C157.346 88.27 157.46 88.69 157.686 88.93C157.913 89.1567 158.206 89.2833 158.566 89.31C158.94 89.3233 159.313 89.3033 159.686 89.25V91.17C159.113 91.29 158.546 91.3233 157.986 91.27C157.44 91.23 156.946 91.0833 156.506 90.83C156.066 90.5633 155.713 90.1767 155.446 89.67C155.18 89.1633 155.046 88.4967 155.046 87.67V83.23H153.646V81.25H155.046ZM166.093 91.39C165.133 91.39 164.273 91.1833 163.513 90.77C162.753 90.3433 162.16 89.75 161.733 88.99C161.306 88.2167 161.093 87.31 161.093 86.27C161.093 85.2167 161.313 84.3033 161.753 83.53C162.193 82.7567 162.8 82.1633 163.573 81.75C164.346 81.3233 165.206 81.11 166.153 81.11C167.113 81.11 167.973 81.3233 168.733 81.75C169.506 82.1633 170.12 82.7567 170.573 83.53C171.026 84.29 171.253 85.19 171.253 86.23C171.253 87.2833 171.02 88.1967 170.553 88.97C170.1 89.7433 169.48 90.3433 168.693 90.77C167.92 91.1833 167.053 91.39 166.093 91.39ZM166.073 89.37C166.54 89.37 166.98 89.2567 167.393 89.03C167.82 88.8033 168.166 88.4633 168.433 88.01C168.7 87.5433 168.833 86.95 168.833 86.23C168.833 85.5367 168.706 84.9633 168.453 84.51C168.2 84.0433 167.866 83.6967 167.453 83.47C167.04 83.2433 166.593 83.13 166.113 83.13C165.646 83.13 165.213 83.2433 164.813 83.47C164.426 83.6967 164.113 84.0433 163.873 84.51C163.633 84.9633 163.513 85.55 163.513 86.27C163.513 86.9633 163.626 87.5433 163.853 88.01C164.093 88.4633 164.406 88.8033 164.793 89.03C165.18 89.2567 165.606 89.37 166.073 89.37ZM174.811 88.03C174.905 88.4033 175.065 88.69 175.291 88.89C175.531 89.09 175.791 89.23 176.071 89.31C176.351 89.3767 176.618 89.41 176.871 89.41C177.391 89.41 177.798 89.31 178.091 89.11C178.398 88.8967 178.551 88.63 178.551 88.31C178.551 88.0433 178.451 87.8367 178.251 87.69C178.051 87.5433 177.791 87.43 177.471 87.35C177.165 87.2567 176.845 87.1633 176.511 87.07C176.151 86.9767 175.765 86.87 175.351 86.75C174.951 86.63 174.571 86.4633 174.211 86.25C173.851 86.0367 173.558 85.7633 173.331 85.43C173.105 85.0967 172.991 84.6833 172.991 84.19C172.991 83.5633 173.165 83.0233 173.511 82.57C173.858 82.1033 174.331 81.7433 174.931 81.49C175.531 81.2367 176.205 81.11 176.951 81.11C177.845 81.11 178.618 81.2967 179.271 81.67C179.925 82.0433 180.398 82.59 180.691 83.31L178.711 83.95C178.618 83.7633 178.478 83.6033 178.291 83.47C178.118 83.3367 177.905 83.2433 177.651 83.19C177.411 83.1233 177.165 83.09 176.911 83.09C176.485 83.09 176.125 83.1767 175.831 83.35C175.538 83.5233 175.391 83.77 175.391 84.09C175.391 84.25 175.438 84.39 175.531 84.51C175.638 84.63 175.778 84.73 175.951 84.81C176.125 84.8767 176.331 84.9433 176.571 85.01C176.811 85.0633 177.065 85.13 177.331 85.21C177.758 85.33 178.178 85.4633 178.591 85.61C179.018 85.7433 179.405 85.9167 179.751 86.13C180.111 86.3433 180.391 86.6233 180.591 86.97C180.805 87.3167 180.925 87.7567 180.951 88.29C180.951 88.8633 180.785 89.39 180.451 89.87C180.118 90.3367 179.638 90.71 179.011 90.99C178.398 91.2567 177.665 91.39 176.811 91.39C175.825 91.39 174.978 91.1767 174.271 90.75C173.565 90.3233 173.085 89.6367 172.831 88.69L174.811 88.03ZM185.438 93.25H182.998V93.07C183.932 92.2967 184.712 91.43 185.338 90.47C185.965 89.51 186.432 88.5033 186.738 87.45C187.058 86.3967 187.218 85.3433 187.218 84.29C187.218 83.2233 187.052 82.1633 186.718 81.11C186.398 80.0433 185.898 79.03 185.218 78.07C184.538 77.0967 183.672 76.2167 182.618 75.43V75.25H185.058C186.072 75.97 186.905 76.81 187.558 77.77C188.212 78.73 188.698 79.7633 189.018 80.87C189.352 81.9767 189.518 83.1167 189.518 84.29C189.518 85.45 189.358 86.59 189.038 87.71C188.732 88.8167 188.272 89.85 187.658 90.81C187.058 91.7567 186.318 92.57 185.438 93.25Z" fill="black"/>
<circle cx="235.5" cy="84.75" r="12.5" fill="#5E8E53"/>
<ellipse cx="225" cy="84.75" rx="12" ry="12.5" fill="#C6BEBE"/>
<circle cx="215.5" cy="84.75" r="12.5" fill="#5DB955"/>
</svg>
