<svg width="412" height="203" viewBox="0 0 412 203" fill="none" xmlns="http://www.w3.org/2000/svg">
<path d="M206.666 168C184.04 168 162.767 159.261 146.767 143.395C130.798 127.559 122 106.464 122 84.0025C122 61.5409 130.798 40.4407 146.767 24.6045C162.767 8.73889 184.04 0 206.666 0C228.053 0 248.23 7.80504 263.887 22.0635L249.469 36.3613C237.673 25.9119 222.61 20.1958 206.666 20.1958C189.482 20.1958 173.324 26.831 161.171 38.8827C136.086 63.7575 136.086 104.238 161.171 129.112C173.324 141.164 189.482 147.799 206.666 147.799C222.61 147.799 237.673 142.088 249.469 131.634L263.887 145.932C248.23 160.185 228.053 167.995 206.666 167.995V168Z" fill="white"/>
<path d="M206.656 144.423C191.772 144.423 177.532 139.109 166.439 129.437L181.908 114.097C188.857 119.725 197.605 122.811 206.651 122.811C217.119 122.811 226.952 118.776 234.337 111.458C241.718 104.139 245.782 94.3878 245.782 84.0023C245.782 73.6169 241.718 63.8655 234.337 56.5471C226.952 49.2237 217.119 45.1885 206.651 45.1885C197.605 45.1885 188.852 48.2751 181.908 53.9028L166.439 38.5581C177.532 28.8854 191.772 23.5723 206.656 23.5723C222.958 23.5723 238.268 29.8487 249.762 41.2466C261.261 52.6495 267.595 67.8319 267.595 83.9925C267.595 100.153 261.261 115.336 249.762 126.738C238.268 138.136 222.958 144.413 206.656 144.413V144.423Z" fill="white"/>
<path d="M241.836 83.9976C241.836 93.3263 238.179 102.09 231.542 108.676H231.537C224.9 115.262 216.063 118.889 206.656 118.889C197.248 118.889 188.411 115.262 181.774 108.676C175.133 102.09 171.475 93.3263 171.475 83.9976C171.475 74.6689 175.133 65.9103 181.774 59.3242C188.411 52.7381 197.248 49.1108 206.656 49.1108C216.063 49.1108 224.9 52.7381 231.542 59.3242C238.179 65.9103 241.836 74.6738 241.836 83.9976Z" fill="white"/>
<path d="M118.024 200.336C116.792 200.336 115.688 200.168 114.712 199.832C113.752 199.48 112.928 198.968 112.24 198.296C111.568 197.608 111.056 196.76 110.704 195.752C110.352 194.744 110.176 193.576 110.176 192.248C110.176 190.904 110.352 189.712 110.704 188.672C111.072 187.632 111.592 186.752 112.264 186.032C112.952 185.296 113.76 184.744 114.688 184.376C115.616 184.008 116.648 183.824 117.784 183.824C118.664 183.824 119.48 183.944 120.232 184.184C120.984 184.408 121.632 184.736 122.176 185.168C122.72 185.6 123.144 186.128 123.448 186.752C123.768 187.376 123.936 188.08 123.952 188.864L120.76 189.704C120.76 189.032 120.608 188.472 120.304 188.024C120.016 187.576 119.632 187.24 119.152 187.016C118.688 186.776 118.192 186.656 117.664 186.656C117.2 186.656 116.736 186.752 116.272 186.944C115.824 187.12 115.408 187.424 115.024 187.856C114.656 188.272 114.352 188.824 114.112 189.512C113.888 190.2 113.776 191.04 113.776 192.032C113.776 193.328 113.96 194.376 114.328 195.176C114.712 195.976 115.232 196.568 115.888 196.952C116.544 197.32 117.28 197.504 118.096 197.504C118.976 197.504 119.656 197.328 120.136 196.976C120.632 196.608 120.984 196.144 121.192 195.584C121.416 195.008 121.536 194.4 121.552 193.76L124.576 194.264C124.56 195.112 124.432 195.912 124.192 196.664C123.952 197.4 123.576 198.048 123.064 198.608C122.552 199.152 121.88 199.576 121.048 199.88C120.216 200.184 119.208 200.336 118.024 200.336ZM126.896 200V187.4H130.353V200H126.896ZM128.649 185.504C127.977 185.504 127.457 185.368 127.089 185.096C126.737 184.808 126.561 184.392 126.561 183.848C126.561 183.288 126.737 182.864 127.089 182.576C127.457 182.288 127.977 182.144 128.649 182.144C129.337 182.144 129.857 182.288 130.209 182.576C130.577 182.864 130.761 183.288 130.761 183.848C130.761 184.376 130.577 184.784 130.209 185.072C129.857 185.36 129.337 185.504 128.649 185.504ZM133.553 200V192.368V187.4H136.385L136.361 191.168H136.841C137.049 190.256 137.345 189.496 137.729 188.888C138.113 188.28 138.593 187.824 139.169 187.52C139.761 187.216 140.457 187.064 141.257 187.064C142.713 187.064 143.817 187.576 144.569 188.6C145.337 189.624 145.721 191.232 145.721 193.424V200H142.241V193.808C142.241 192.464 142.041 191.488 141.641 190.88C141.257 190.256 140.689 189.944 139.937 189.944C139.297 189.944 138.761 190.144 138.329 190.544C137.897 190.944 137.569 191.472 137.345 192.128C137.137 192.768 137.025 193.488 137.009 194.288V200H133.553ZM154.549 200.336C153.509 200.336 152.581 200.192 151.765 199.904C150.965 199.616 150.285 199.2 149.725 198.656C149.165 198.112 148.733 197.44 148.429 196.64C148.141 195.84 147.997 194.936 147.997 193.928C147.997 192.936 148.133 192.024 148.405 191.192C148.693 190.344 149.109 189.616 149.653 189.008C150.197 188.384 150.861 187.904 151.645 187.568C152.429 187.232 153.317 187.064 154.309 187.064C155.269 187.064 156.125 187.224 156.877 187.544C157.629 187.848 158.253 188.312 158.749 188.936C159.261 189.56 159.629 190.328 159.853 191.24C160.093 192.136 160.181 193.168 160.117 194.336L150.229 194.432V192.536L158.125 192.464L156.901 193.424C157.013 192.576 156.957 191.88 156.733 191.336C156.509 190.792 156.181 190.392 155.749 190.136C155.333 189.88 154.869 189.752 154.357 189.752C153.749 189.752 153.213 189.912 152.749 190.232C152.285 190.552 151.925 191.024 151.669 191.648C151.413 192.256 151.285 192.992 151.285 193.856C151.285 195.216 151.581 196.216 152.173 196.856C152.781 197.496 153.573 197.816 154.549 197.816C154.997 197.816 155.373 197.76 155.677 197.648C155.997 197.52 156.253 197.36 156.445 197.168C156.653 196.976 156.813 196.76 156.925 196.52C157.053 196.28 157.157 196.04 157.237 195.8L160.237 196.448C160.093 197.04 159.877 197.576 159.589 198.056C159.317 198.52 158.949 198.928 158.485 199.28C158.021 199.616 157.461 199.872 156.805 200.048C156.165 200.24 155.413 200.336 154.549 200.336ZM170.079 200.336C168.847 200.336 167.743 200.168 166.767 199.832C165.807 199.48 164.983 198.968 164.295 198.296C163.623 197.608 163.111 196.76 162.759 195.752C162.407 194.744 162.231 193.576 162.231 192.248C162.231 190.904 162.407 189.712 162.759 188.672C163.127 187.632 163.647 186.752 164.319 186.032C165.007 185.296 165.815 184.744 166.743 184.376C167.671 184.008 168.703 183.824 169.839 183.824C170.719 183.824 171.535 183.944 172.287 184.184C173.039 184.408 173.687 184.736 174.231 185.168C174.775 185.6 175.199 186.128 175.503 186.752C175.823 187.376 175.991 188.08 176.007 188.864L172.815 189.704C172.815 189.032 172.663 188.472 172.359 188.024C172.071 187.576 171.687 187.24 171.207 187.016C170.743 186.776 170.247 186.656 169.719 186.656C169.255 186.656 168.791 186.752 168.327 186.944C167.879 187.12 167.463 187.424 167.079 187.856C166.711 188.272 166.407 188.824 166.167 189.512C165.943 190.2 165.831 191.04 165.831 192.032C165.831 193.328 166.015 194.376 166.383 195.176C166.767 195.976 167.287 196.568 167.943 196.952C168.599 197.32 169.335 197.504 170.151 197.504C171.031 197.504 171.711 197.328 172.191 196.976C172.687 196.608 173.039 196.144 173.247 195.584C173.471 195.008 173.591 194.4 173.607 193.76L176.631 194.264C176.615 195.112 176.487 195.912 176.247 196.664C176.007 197.4 175.631 198.048 175.119 198.608C174.607 199.152 173.935 199.576 173.103 199.88C172.271 200.184 171.263 200.336 170.079 200.336ZM178.951 200V182.84H182.359V200H178.951ZM189.809 200.336C188.337 200.336 187.225 199.84 186.473 198.848C185.737 197.84 185.369 196.312 185.369 194.264V187.4H188.825V193.832C188.825 195.064 189.009 195.984 189.377 196.592C189.745 197.184 190.305 197.48 191.057 197.48C191.505 197.48 191.897 197.368 192.233 197.144C192.569 196.92 192.857 196.608 193.097 196.208C193.337 195.808 193.513 195.336 193.625 194.792C193.753 194.248 193.825 193.664 193.841 193.04V187.4H197.297V194.864V200H194.513L194.489 196.064H194.057C193.817 197.056 193.513 197.872 193.145 198.512C192.793 199.136 192.337 199.6 191.777 199.904C191.233 200.192 190.577 200.336 189.809 200.336ZM208.099 200.336C207.299 200.336 206.603 200.184 206.011 199.88C205.419 199.56 204.939 199.104 204.571 198.512C204.203 197.92 203.947 197.2 203.803 196.352H203.347L203.323 200H200.467V193.808V182.84H203.923V186.968C203.923 187.352 203.899 187.768 203.851 188.216C203.803 188.648 203.731 189.096 203.635 189.56C203.555 190.024 203.467 190.504 203.371 191H203.899C204.107 190.2 204.387 189.512 204.739 188.936C205.107 188.344 205.571 187.896 206.131 187.592C206.691 187.272 207.355 187.112 208.123 187.112C209.179 187.112 210.091 187.384 210.859 187.928C211.627 188.472 212.219 189.24 212.635 190.232C213.067 191.224 213.283 192.4 213.283 193.76C213.283 195.088 213.075 196.248 212.659 197.24C212.243 198.216 211.643 198.976 210.859 199.52C210.091 200.064 209.171 200.336 208.099 200.336ZM206.875 197.504C207.451 197.504 207.947 197.352 208.363 197.048C208.779 196.728 209.099 196.28 209.323 195.704C209.547 195.128 209.659 194.456 209.659 193.688C209.659 192.92 209.547 192.256 209.323 191.696C209.115 191.136 208.811 190.696 208.411 190.376C208.011 190.056 207.523 189.896 206.947 189.896C206.563 189.896 206.211 189.968 205.891 190.112C205.571 190.256 205.291 190.456 205.051 190.712C204.811 190.952 204.603 191.232 204.427 191.552C204.251 191.856 204.123 192.176 204.043 192.512C203.963 192.848 203.923 193.168 203.923 193.472V193.928C203.923 194.296 203.979 194.696 204.091 195.128C204.203 195.544 204.379 195.936 204.619 196.304C204.875 196.656 205.187 196.944 205.555 197.168C205.923 197.392 206.363 197.504 206.875 197.504ZM221.471 200V184.16H225.983L233.159 195.368H233.423L233.207 184.16H236.567V200H232.487L224.903 188.264H224.639L224.855 200H221.471ZM244.184 200.336C242.712 200.336 241.6 199.84 240.848 198.848C240.112 197.84 239.744 196.312 239.744 194.264V187.4H243.2V193.832C243.2 195.064 243.384 195.984 243.752 196.592C244.12 197.184 244.68 197.48 245.432 197.48C245.88 197.48 246.272 197.368 246.608 197.144C246.944 196.92 247.232 196.608 247.472 196.208C247.712 195.808 247.888 195.336 248 194.792C248.128 194.248 248.2 193.664 248.216 193.04V187.4H251.672V194.864V200H248.888L248.864 196.064H248.432C248.192 197.056 247.888 197.872 247.52 198.512C247.168 199.136 246.712 199.6 246.152 199.904C245.608 200.192 244.952 200.336 244.184 200.336ZM246.776 185.672H244.136L245.936 181.616H249.368L246.776 185.672ZM260.674 200.336C259.586 200.336 258.634 200.176 257.818 199.856C257.002 199.536 256.322 199.088 255.778 198.512C255.234 197.936 254.826 197.256 254.554 196.472C254.282 195.672 254.146 194.8 254.146 193.856C254.146 192.864 254.282 191.96 254.554 191.144C254.842 190.312 255.258 189.592 255.802 188.984C256.346 188.376 257.018 187.904 257.818 187.568C258.618 187.232 259.53 187.064 260.554 187.064C261.578 187.064 262.466 187.232 263.218 187.568C263.986 187.904 264.602 188.376 265.066 188.984C265.546 189.576 265.874 190.28 266.05 191.096L262.858 192.128C262.81 191.632 262.674 191.208 262.45 190.856C262.242 190.488 261.954 190.216 261.586 190.04C261.234 189.848 260.834 189.752 260.386 189.752C259.922 189.752 259.522 189.848 259.186 190.04C258.85 190.216 258.562 190.48 258.322 190.832C258.098 191.168 257.922 191.584 257.794 192.08C257.682 192.56 257.626 193.104 257.626 193.712C257.626 194.576 257.738 195.312 257.962 195.92C258.202 196.512 258.546 196.968 258.994 197.288C259.458 197.592 260.026 197.744 260.698 197.744C261.338 197.744 261.85 197.624 262.234 197.384C262.618 197.128 262.898 196.808 263.074 196.424C263.266 196.024 263.386 195.616 263.434 195.2L266.458 195.872C266.378 196.496 266.202 197.08 265.93 197.624C265.674 198.168 265.306 198.64 264.826 199.04C264.346 199.44 263.762 199.76 263.074 200C262.402 200.224 261.602 200.336 260.674 200.336ZM268.436 200V182.84H271.844V200H268.436ZM280.878 200.336C279.838 200.336 278.91 200.192 278.094 199.904C277.294 199.616 276.614 199.2 276.054 198.656C275.494 198.112 275.062 197.44 274.758 196.64C274.47 195.84 274.326 194.936 274.326 193.928C274.326 192.936 274.462 192.024 274.734 191.192C275.022 190.344 275.438 189.616 275.982 189.008C276.526 188.384 277.19 187.904 277.974 187.568C278.758 187.232 279.646 187.064 280.638 187.064C281.598 187.064 282.454 187.224 283.206 187.544C283.958 187.848 284.582 188.312 285.078 188.936C285.59 189.56 285.958 190.328 286.182 191.24C286.422 192.136 286.51 193.168 286.446 194.336L276.558 194.432V192.536L284.454 192.464L283.23 193.424C283.342 192.576 283.286 191.88 283.062 191.336C282.838 190.792 282.51 190.392 282.078 190.136C281.662 189.88 281.198 189.752 280.686 189.752C280.078 189.752 279.542 189.912 279.078 190.232C278.614 190.552 278.254 191.024 277.998 191.648C277.742 192.256 277.614 192.992 277.614 193.856C277.614 195.216 277.91 196.216 278.502 196.856C279.11 197.496 279.902 197.816 280.878 197.816C281.326 197.816 281.702 197.76 282.006 197.648C282.326 197.52 282.582 197.36 282.774 197.168C282.982 196.976 283.142 196.76 283.254 196.52C283.382 196.28 283.486 196.04 283.566 195.8L286.566 196.448C286.422 197.04 286.206 197.576 285.918 198.056C285.646 198.52 285.278 198.928 284.814 199.28C284.35 199.616 283.79 199.872 283.134 200.048C282.494 200.24 281.742 200.336 280.878 200.336ZM294.796 200.336C293.532 200.336 292.42 200.088 291.46 199.592C290.5 199.08 289.748 198.336 289.204 197.36C288.66 196.368 288.388 195.136 288.388 193.664C288.388 192.192 288.66 190.968 289.204 189.992C289.764 189.016 290.524 188.288 291.484 187.808C292.46 187.312 293.564 187.064 294.796 187.064C296.06 187.064 297.172 187.312 298.132 187.808C299.108 188.304 299.868 189.048 300.412 190.04C300.972 191.016 301.252 192.24 301.252 193.712C301.252 195.2 300.964 196.44 300.388 197.432C299.828 198.408 299.06 199.136 298.084 199.616C297.124 200.096 296.028 200.336 294.796 200.336ZM294.916 197.768C295.54 197.768 296.06 197.624 296.476 197.336C296.908 197.048 297.228 196.616 297.436 196.04C297.66 195.448 297.772 194.736 297.772 193.904C297.772 193.024 297.652 192.28 297.412 191.672C297.188 191.048 296.852 190.576 296.404 190.256C295.956 189.92 295.388 189.752 294.7 189.752C294.108 189.752 293.596 189.896 293.164 190.184C292.732 190.456 292.404 190.888 292.18 191.48C291.956 192.056 291.844 192.768 291.844 193.616C291.844 194.976 292.116 196.008 292.66 196.712C293.204 197.416 293.956 197.768 294.916 197.768Z" fill="white"/>
</svg>
